<?xml version="1.0" standalone="no"?>
<!DOCTYPE svg PUBLIC "-//W3C//DTD SVG 1.1//EN" "http://www.w3.org/Graphics/SVG/1.1/DTD/svg11.dtd">
<svg xmlns="http://www.w3.org/2000/svg">
<defs >
<font id="SourceSansPro" horiz-adv-x="460" ><font-face
    font-family="Source Sans Pro Black"
    units-per-em="1000"
    panose-1="2 11 8 3 3 4 3 9 2 4"
    ascent="984"
    descent="-273"
    alphabetic="0" />
<glyph unicode=" " glyph-name="space" horiz-adv-x="200" />
<glyph unicode="!" glyph-name="exclam" horiz-adv-x="350" d="M158 530L178 670H338L306 530L224 238H120L158 530ZM126 -12Q90 -12 68 11T46 72Q46 92 54 112T76 148T111 174T156 184Q192 184 214 160T236 100Q236 79 228 59T206 23T171 -2T126 -12Z" />
<glyph unicode="&quot;" glyph-name="quotedbl" horiz-adv-x="550" d="M138 530L158 670H316L284 530L222 338H118L138 530ZM378 530L398 670H556L524 530L462 338H358L378 530Z" />
<glyph unicode="#" glyph-name="numbersign" horiz-adv-x="516" d="M90 182H16L40 284H122L154 386H80L104 488H186L238 650H330L278 488H368L420 650H512L460 488H534L510 386H428L396 284H470L446 182H364L306 0H214L272 182H182L124 0H32L90 182ZM304 284L336
386H246L214 284H304Z" />
<glyph unicode="$" glyph-name="dollar" horiz-adv-x="520" d="M410 472Q390 498 365 513T314 528Q284 528 268 512T252 472Q252 450 266 433T303 398T351 361T399 319T435 265T450 196Q450 155 437 120T398 58T337 14T257 -9L236 -110H132L153 -4Q111 7 72 30T2
90L100 186Q123 157 153 137T220 116Q256 116 274 131T292 176Q292 200 278 219T241 257T193 295T145 336T109 387T94 454Q94 494 107 529T146 590T206 632T285 654L304 754H408L388 646Q456 625 510 562L410 472Z" />
<glyph unicode="%" glyph-name="percent" horiz-adv-x="844" d="M194 258Q165 258 139 269T93 301T62 352T50 420Q50 475 64 521T104 602T166 655T246 674Q275 674 301 663T347 630T378 579T390 512Q390 457 376 411T336 330T274 277T194 258ZM236 580Q206 580
184 538T162 422Q162 389 172 371T204 352Q234 352 256 394T278 510Q278 543 268 561T236 580ZM144 -12L614 672H704L234 -12H144ZM614 -12Q585 -12 559 -1T513 31T482 82T470 150Q470 205 484 251T524 332T586 385T666 404Q695 404 721 393T767 360T798 309T810
242Q810 187 796 141T756 60T694 7T614 -12ZM656 310Q626 310 604 268T582 152Q582 119 592 101T624 82Q654 82 676 124T698 240Q698 273 688 291T656 310Z" />
<glyph unicode="&amp;" glyph-name="ampersand" horiz-adv-x="652" d="M168 170Q168 143 185 126T236 108Q274 108 311 125Q255 181 214 248Q193 231 181 212T168 170ZM272 470Q272 457 274 445T279 419Q318 440 343 464T369 525Q369 558 338 558Q313 558 293
535T272 470ZM660 372Q632 312 598 256T517 147Q543 134 567 127T610 114L548 -12Q475 2 406 47Q363 18 314 3T208 -12Q114 -12 64 34T14 154Q14 194 26 225T58 280T104 324T160 359Q140 416 140 466Q140 506 156 541T200 604T266 646T348 662Q417 662 454 625T492
522Q492 486 478 457T440 403T388 359T327 320Q347 291 371 265T421 215Q452 250 475 288T516 372H660Z" />
<glyph unicode="&apos;" glyph-name="quotesingle" horiz-adv-x="310" d="M138 530L158 670H316L284 530L222 338H118L138 530Z" />
<glyph unicode="(" glyph-name="parenleft" horiz-adv-x="344" d="M112 -180Q101 -149 90 -112T71 -34T57 47T52 130Q52 217 67 295T112 446T186 590T288 734L380 688Q274 545 227 404T180 120Q180 89 182 55T188 -13T198 -80T214 -138L112 -180V-180Z" />
<glyph unicode=")" glyph-name="parenright" horiz-adv-x="346" d="M240 734Q251 702 262 665T281 588T295 506T300 424Q300 337 285 259T240 108T166 -36T64 -180L-28 -134Q78 9 125 150T172 434Q172 465 170 499T164 567T154 634T138 692L240 734V734Z" />
<glyph unicode="*" glyph-name="asterisk" horiz-adv-x="452" d="M112 396L190 498L92 556L128 630L238 596L272 714L354 708L346 586L464 600L476 520L362 480L400 370L326 328L262 424L172 340L112 396Z" />
<glyph unicode="+" glyph-name="plus" horiz-adv-x="520" d="M212 274H48V386H214V568H330V386H496V274H328V92H212V274Z" />
<glyph unicode="," glyph-name="comma" horiz-adv-x="310" d="M-26 -110Q35 -93 67 -63T111 2Q74 4 50 24T26 82Q26 102 33 120T53 153T86 175T130 184Q175 184 199 156T224 76Q224 24 208 -21T162 -101T89 -161T-10 -196L-26 -110Z" />
<glyph unicode="-" glyph-name="hyphen" horiz-adv-x="328" d="M56 310H296L272 198H32L56 310Z" />
<glyph unicode="." glyph-name="period" horiz-adv-x="310" d="M104 -12Q68 -12 46 11T24 72Q24 92 32 112T54 148T89 174T134 184Q170 184 192 160T214 100Q214 79 206 59T184 23T149 -2T104 -12Z" />
<glyph unicode="/" glyph-name="slash" horiz-adv-x="324" d="M280 710H384L34 -160H-68L280 710Z" />
<glyph unicode="0" glyph-name="zero" horiz-adv-x="520" d="M224 -12Q185 -12 151 1T91 43T51 116T36 220Q36 332 62 412T129 545T221 621T322 646Q361 646 395 632T454 590T493 517T508 412Q508 300 483 220T417 89T325 13T224 -12ZM312 524Q289 524 267 501T226
435T196 333T184 202Q184 174 187 157T197 129T213 114T234 110Q256 110 279 133T320 199T350 300T362 430Q362 485 348 504T312 524Z" />
<glyph unicode="1" glyph-name="one" horiz-adv-x="520" d="M42 128H170L240 474H124L144 574Q200 583 238 597T314 634H432L330 128H442L416 0H16L42 128Z" />
<glyph unicode="2" glyph-name="two" horiz-adv-x="520" d="M4 90Q74 147 134 196T239 289T309 373T334 454Q334 484 317 502T268 520Q242 520 221 507T174 474L98 566Q193 646 288 646Q334 646 371 634T435 598T476 543T490 470Q490 423 473 382T424 301T350
221T258 134H450L424 0H-14L4 90Z" />
<glyph unicode="3" glyph-name="three" horiz-adv-x="520" d="M82 186Q108 151 141 134T204 116Q249 116 274 134T300 188Q300 207 294 221T272 246T227 261T154 266L176 378Q222 378 252 384T300 402T325 429T332 464Q332 490 314 505T264 520Q243 520 223 511T172
484L96 586Q147 621 195 633T294 646Q338 646 375 635T439 604T481 554T496 490Q496 430 468 389T364 322V318Q415 297 437 262T460 186Q460 137 441 100T387 38T307 1T208 -12Q179 -12 149 -6T90 13T33 49T-18 104L82 186Z" />
<glyph unicode="4" glyph-name="four" horiz-adv-x="520" d="M238 0L267 146H8L30 258L316 634H510L437 268H506L482 146H413L384 0H238ZM291 268L308 354Q316 390 325 427T342 500H338Q320 470 303 439T266 380L184 268H291Z" />
<glyph unicode="5" glyph-name="five" horiz-adv-x="520" d="M92 186Q144 116 210 116Q249 116 278 142T308 216Q308 254 288 273T232 292Q221 292 212 291T194 287T172 279T144 264L86 312L164 634H522L496 500H276L248 400Q262 406 274 408T300 410Q336 410
367 399T421 367T457 315T470 242Q470 183 448 136T389 56T305 6T208 -12Q151 -12 95 13T-8 104L92 186Z" />
<glyph unicode="6" glyph-name="six" horiz-adv-x="520" d="M264 106Q284 106 298 117T322 146T335 183T340 221Q340 255 326 273T284 292Q266 292 245 280T199 237Q198 228 198 219T198 201Q198 153 216 130T264 106ZM440 472Q426 492 409 505T366 518Q315 518
274 477T212 345Q225 358 240 368T271 386T301 396T328 400Q361 400 390 391T440 361T473 310T486 234Q486 188 469 144T422 65T350 9T256 -12Q209 -12 171 4T106 51T65 124T50 218Q50 315 74 394T141 529T245 615T376 646Q407 646 433 638T479 616T514 586T540
556L440 472Z" />
<glyph unicode="7" glyph-name="seven" horiz-adv-x="520" d="M92 0Q137 160 197 283T350 500H96L122 634H554L534 534Q463 469 417 402T339 268T289 133T256 0H92V0Z" />
<glyph unicode="8" glyph-name="eight" horiz-adv-x="520" d="M234 280Q211 262 196 235T180 172Q180 143 197 121T250 98Q281 98 304 117T328 178Q328 210 304 232T234 280ZM328 372Q346 390 359 414T372 472Q372 498 361 516T318 534Q292 534 274 517T256 466Q256
435 274 414T328 372ZM38 154Q38 185 48 212T76 261T118 299T170 326V330Q116 387 116 460Q116 503 133 537T179 596T247 633T330 646Q362 646 394 638T451 611T492 565T508 496Q508 439 479 397T398 328V324Q434 300 454 263T474 178Q474 134 455 99T404 40T328
2T238 -12Q204 -12 169 -3T104 27T57 78T38 154Z" />
<glyph unicode="9" glyph-name="nine" horiz-adv-x="520" d="M264 342Q282 342 303 354T349 397Q350 406 350 415T350 433Q350 481 332 504T284 528Q264 528 250 517T226 488T213 451T208 413Q208 379 222 361T264 342ZM108 162Q122 142 139 129T182 116Q233 116
274 157T336 289Q323 276 308 266T277 248T247 238T220 234Q187 234 158 243T108 273T75 324T62 400Q62 446 79 490T126 569T198 625T292 646Q339 646 377 630T442 583T483 510T498 416Q498 318 474 239T407 105T303 19T172 -12Q140 -12 115 -4T69 18T34 48T8 78L108
162Z" />
<glyph unicode=":" glyph-name="colon" horiz-adv-x="310" d="M158 308Q122 308 100 331T78 392Q78 412 86 432T108 468T143 494T188 504Q224 504 246 480T268 420Q268 399 260 379T238 343T203 318T158 308ZM104 -12Q68 -12 46 11T24 72Q24 92 32 112T54 148T89
174T134 184Q170 184 192 160T214 100Q214 79 206 59T184 23T149 -2T104 -12Z" />
<glyph unicode=";" glyph-name="semicolon" horiz-adv-x="310" d="M158 308Q122 308 100 331T78 392Q78 412 86 432T108 468T143 494T188 504Q224 504 246 480T268 420Q268 399 260 379T238 343T203 318T158 308ZM-26 -110Q35 -93 67 -63T111 2Q74 4 50 24T26
82Q26 102 33 120T53 153T86 175T130 184Q175 184 199 156T224 76Q224 24 208 -21T162 -101T89 -161T-10 -196L-26 -110Z" />
<glyph unicode="&lt;" glyph-name="less" horiz-adv-x="520" d="M46 386L496 564V434L338 380L208 334V330L338 284L496 230V98L46 276V386Z" />
<glyph unicode="=" glyph-name="equal" horiz-adv-x="520" d="M48 394V506H496V394H48ZM48 411V523H496V411H48Z" />
<glyph unicode="&gt;" glyph-name="greater" horiz-adv-x="520" d="M48 230L206 284L336 330V334L206 380L48 434V564L498 386V276L48 98V230Z" />
<glyph unicode="?" glyph-name="question" horiz-adv-x="458" d="M168 -12Q132 -12 110 11T88 72Q88 92 96 112T118 148T153 174T198 184Q234 184 256 160T278 100Q278 79 270 59T248 23T213 -2T168 -12ZM146 244Q151 283 165 311T198 361T238 400T276 432T304
464T316 502Q316 526 301 540T260 554Q243 554 228 546T194 520L114 610Q189 682 280 682Q323 682 358 672T418 641T458 592T472 526Q472 487 460 460T428 410T385 370T341 332T304 288T282 232L146 244Z" />
<glyph unicode="@" glyph-name="at" horiz-adv-x="886" d="M630 134Q649 134 670 147T709 186T738 253T750 346Q750 390 738 432T695 508T617 561T496 582Q435 582 374 551T263 466T182 339T150 180Q150 113 172 64T231 -17T312 -64T404 -80Q428 -80 460 -71T516
-46L558 -132Q515 -153 474 -164T390 -176Q322 -176 259 -156T148 -93T71 12T42 162Q42 270 80 363T183 526T333 634T512 674Q592 674 655 650T761 583T827 483T850 362Q850 280 830 219T776 118T697 57T600 36Q565 36 537 54T498 110H494Q476 81 444 64T382 46Q354
46 331 56T290 86T264 133T254 194Q254 242 270 287T315 367T380 423T460 444Q483 444 499 433T528 396H530L546 436H642L590 212Q581 171 590 153T630 134ZM372 202Q372 175 382 160T416 144Q430 144 442 154T472 188L502 318Q490 344 464 344Q444 344 428 330T399
295T379 249T372 202Z" />
<glyph unicode="A" glyph-name="A" horiz-adv-x="562" d="M352 268L350 344Q348 391 347 435T346 530H342Q322 482 305 437T266 344L232 268H352ZM356 148H177L110 0H-66L274 650H466L528 0H360L356 148Z" />
<glyph unicode="B" glyph-name="B" horiz-adv-x="612" d="M156 650H364Q413 650 454 642T526 615T573 569T590 500Q590 447 554 403T450 338L448 334Q558 307 558 216Q558 157 535 116T472 50T381 12T272 0H26L156 650ZM318 390Q377 390 401 412T426 472Q426 528
338 528H292L264 390H318ZM284 122Q344 122 374 145T404 210Q404 282 316 282H242L210 122H284Z" />
<glyph unicode="C" glyph-name="C" horiz-adv-x="574" d="M56 264Q56 351 83 424T159 550T270 632T406 662Q463 662 509 635T584 556L476 472Q441 524 398 524Q363 524 331 505T274 452T235 372T220 274Q220 203 249 165T344 126Q370 126 395 139T444 172L510
70Q496 57 476 43T431 16T375 -4T310 -12Q253 -12 206 6T126 60T75 146T56 264Z" />
<glyph unicode="D" glyph-name="D" horiz-adv-x="626" d="M156 650H308Q376 650 430 635T522 588T580 508T600 394Q600 295 573 221T497 98T382 25T240 0H26L156 650ZM236 128Q276 128 312 141T376 185T420 264T436 384Q436 422 426 448T399 491T357 515T304 522H290L212
128H236Z" />
<glyph unicode="E" glyph-name="E" horiz-adv-x="536" d="M156 650H552L526 516H288L266 402H468L442 268H240L212 134H458L432 0H26L156 650Z" />
<glyph unicode="F" glyph-name="F" horiz-adv-x="516" d="M156 650H552L526 516H288L262 382H464L438 248H236L186 0H26L156 650Z" />
<glyph unicode="G" glyph-name="G" horiz-adv-x="620" d="M56 264Q56 351 84 424T160 550T274 632T416 662Q481 662 528 635T604 556L496 472Q478 499 458 511T408 524Q369 524 335 505T275 452T235 372T220 274Q220 203 249 164T348 124Q362 124 377 128T404
140L428 248H332L356 378H592L530 56Q492 27 438 8T320 -12Q259 -12 211 6T128 60T75 146T56 264Z" />
<glyph unicode="H" glyph-name="H" horiz-adv-x="664" d="M156 650H316L266 406H460L508 650H668L538 0H378L432 266H238L186 0H26L156 650Z" />
<glyph unicode="I" glyph-name="I" horiz-adv-x="310" d="M156 650H316L186 0H26L156 650Z" />
<glyph unicode="J" glyph-name="J" horiz-adv-x="504" d="M426 211Q417 166 399 126T351 55T279 6T182 -12Q126 -12 74 13T-10 86L86 184Q101 163 125 145T182 126Q217 126 238 152T272 239L354 650H514L426 211V211Z" />
<glyph unicode="K" glyph-name="K" horiz-adv-x="622" d="M156 650H316L267 404H271L484 650H658L424 376L568 0H402L306 276L222 180L186 0H26L156 650Z" />
<glyph unicode="L" glyph-name="L" horiz-adv-x="514" d="M156 650H316L212 134H448L422 0H26L156 650Z" />
<glyph unicode="M" glyph-name="M" horiz-adv-x="754" d="M156 650H322L364 370L379 260H383L440 370L592 650H758L628 0H478L524 216Q529 241 536 271T553 331T571 390T588 444H585L504 292L366 56H306L264 292L244 444H241Q239 419 237 390T231 330T225 271T216
216L172 0H26L156 650Z" />
<glyph unicode="N" glyph-name="N" horiz-adv-x="652" d="M156 650H310L400 342L432 196H436Q438 222 440 253T445 316T452 380T462 442L504 650H656L526 0H372L282 308L252 454H248Q243 398 238 334T220 210L178 0H26L156 650Z" />
<glyph unicode="O" glyph-name="O" horiz-adv-x="670" d="M308 -12Q252 -12 206 6T126 60T75 146T56 264Q56 355 84 428T159 554T266 634T392 662Q448 662 494 644T574 590T625 504T644 386Q644 295 616 222T541 96T433 16T308 -12ZM384 524Q356 524 327 506T274
455T235 376T220 274Q220 203 245 165T316 126Q344 126 373 144T426 195T465 274T480 376Q480 447 455 485T384 524Z" />
<glyph unicode="P" glyph-name="P" horiz-adv-x="596" d="M156 650H370Q418 650 460 641T533 610T582 555T600 472Q600 401 575 352T508 271T411 226T294 212H228L186 0H26L156 650ZM313 338Q375 338 408 366T442 448Q442 487 418 505T348 524H290L254 338H313Z" />
<glyph unicode="Q" glyph-name="Q" horiz-adv-x="670" d="M384 524Q356 524 327 506T274 455T235 376T220 274Q220 203 245 165T316 126Q344 126 373 144T426 195T465 274T480 376Q480 447 455 485T384 524ZM578 -164Q560 -172 535 -177T492 -182Q279 -182 203
7Q134 35 95 100T56 264Q56 355 84 428T159 554T266 634T392 662Q448 662 494 644T574 590T625 504T644 386Q644 307 623 241T564 125T478 42T374 -4Q395 -30 430 -42T502 -54Q523 -54 539 -52T572 -44L578 -164Z" />
<glyph unicode="R" glyph-name="R" horiz-adv-x="612" d="M256 350H314Q379 350 410 378T442 454Q442 490 418 507T348 524H290L256 350ZM370 650Q419 650 461 641T534 612T582 558T600 478Q600 433 589 397T556 332T506 283T443 249L540 0H372L297 224H230L186
0H26L156 650H370Z" />
<glyph unicode="S" glyph-name="S" horiz-adv-x="538" d="M116 203Q142 168 178 146T252 124Q287 124 307 139T328 181Q328 203 308 216T254 251L198 286Q153 315 128 353T102 452Q102 496 121 534T172 600T247 645T341 662Q398 662 450 636T543 561L443 467Q418
492 393 508T335 524Q300 524 283 508T266 468Q266 448 286 435T346 396L406 359Q453 330 473 296T494 204Q494 159 476 120T425 52T345 5T240 -12Q178 -12 116 16T2 113L116 203Z" />
<glyph unicode="T" glyph-name="T" horiz-adv-x="540" d="M244 516H80L106 650H594L568 516H404L302 0H142L244 516Z" />
<glyph unicode="U" glyph-name="U" horiz-adv-x="654" d="M152 650H312L242 300Q239 280 237 262T234 226Q234 176 252 151T320 126Q363 126 389 162T432 282L506 650H662L588 286Q558 132 493 60T316 -12Q194 -12 134 44T74 222Q74 245 78 275T88 332L152 650Z" />
<glyph unicode="V" glyph-name="V" horiz-adv-x="576" d="M78 650H246L258 346Q260 295 261 244T262 140H266Q288 192 309 243T352 346L484 650H660L326 0H132L78 650Z" />
<glyph unicode="W" glyph-name="W" horiz-adv-x="808" d="M98 650H262L236 356Q231 305 226 253T212 148H216Q236 200 257 252T298 356L421 650H554V356Q552 306 550 254T544 148H548Q565 201 583 253T616 356L714 650H866L620 0H418L426 278Q426 293 427 311T429
350T433 390T437 429H433Q420 393 405 355T376 278L268 0H70L98 650Z" />
<glyph unicode="X" glyph-name="X" horiz-adv-x="576" d="M202 334L104 650H282L306 536Q311 513 316 487T328 430H332Q349 461 364 487T392 536L456 650H626L400 328L506 0H328L300 126Q294 152 288 177T276 232H272Q255 203 240 178T210 126L134 0H-36L202 334Z" />
<glyph unicode="Y" glyph-name="Y" horiz-adv-x="528" d="M182 228L79 650H245L266 506Q272 468 277 435T288 362H292Q312 401 329 435T368 508L446 650H618L342 228L296 0H137L182 228Z" />
<glyph unicode="Z" glyph-name="Z" horiz-adv-x="530" d="M14 96L344 516H104L130 650H562L542 554L216 134H480L452 0H-6L14 96Z" />
<glyph unicode="[" glyph-name="bracketleft" horiz-adv-x="344" d="M222 -68L204 -152H-8L164 708H376L360 624H266L128 -68H222Z" />
<glyph unicode="\" glyph-name="backslash" horiz-adv-x="324" d="M84 710H186L248 -160H144L84 710Z" />
<glyph unicode="]" glyph-name="bracketright" horiz-adv-x="346" d="M88 -68L226 624H134L150 708H362L190 -152H-22L-4 -68H88Z" />
<glyph unicode="^" glyph-name="asciicircum" horiz-adv-x="516" d="M218 670H344L494 272H364L326 390L284 526H280L236 390L198 272H68L218 670Z" />
<glyph unicode="_" glyph-name="underscore" horiz-adv-x="480" d="M422 -56L404 -144H-52L-34 -56H422Z" />
<glyph unicode="`" glyph-name="grave" horiz-adv-x="540" d="M210 726H356L412 574H302L210 726Z" />
<glyph unicode="a" glyph-name="a" horiz-adv-x="558" d="M28 172Q28 243 50 305T109 413T194 485T294 512Q326 512 355 496T398 450H400L422 500H550L450 0H320V62H318Q285 27 245 8T168 -12Q102 -12 65 35T28 172ZM240 118Q260 118 284 130T328 184L360 344Q351
364 336 373T306 382Q284 382 264 368T229 329T204 269T194 192Q194 153 206 136T240 118Z" />
<glyph unicode="b" glyph-name="b" horiz-adv-x="560" d="M8 0L148 696H308L278 550L252 458H254Q286 484 320 498T390 512Q456 512 493 465T530 328Q530 257 508 195T449 87T364 15T264 -12Q232 -12 205 4T164 50H162L140 0H8ZM318 382Q298 382 275 371T234 326L200
156Q208 136 222 127T252 118Q274 118 294 132T329 171T354 231T364 308Q364 347 352 364T318 382Z" />
<glyph unicode="c" glyph-name="c" horiz-adv-x="446" d="M26 196Q26 259 48 316T111 416T206 486T326 512Q374 512 409 493T462 450L374 356Q360 370 347 377T316 384Q289 384 266 370T226 330T200 270T190 198Q190 160 208 138T262 116Q285 116 300 124T330
144L396 46Q367 25 327 7T226 -12Q184 -12 148 2T84 42T42 107T26 196Z" />
<glyph unicode="d" glyph-name="d" horiz-adv-x="550" d="M402 550L430 696H590L450 0H320V62H318Q285 27 245 8T168 -12Q102 -12 65 35T28 172Q28 243 50 305T109 413T194 485T294 512Q326 512 351 497T390 456H392L402 550ZM240 118Q259 118 283 130T328 184L360
344Q351 364 336 373T306 382Q284 382 264 368T229 329T204 269T194 192Q194 153 206 136T240 118Z" />
<glyph unicode="e" glyph-name="e" horiz-adv-x="502" d="M26 204Q26 273 51 329T116 426T207 489T308 512Q354 512 385 497T436 456T465 396T474 322Q474 303 471 284T463 249T454 220T446 202H176Q178 152 207 130T280 108Q301 108 324 118T364 140L420 40Q390
19 343 4T234 -12Q188 -12 150 3T85 46T42 114T26 204ZM340 298Q342 304 343 312T344 330Q344 356 332 373T288 390Q259 390 232 368T188 298H340Z" />
<glyph unicode="f" glyph-name="f" horiz-adv-x="344" d="M70 494L136 500L138 514Q145 553 160 588T201 650T261 692T344 708Q405 708 458 680L408 568Q400 573 387 577T362 582Q349 582 339 580T321 572T308 553T298 520L294 500H376L352 376H268L194 0H34L110
376H46L70 494Z" />
<glyph unicode="g" glyph-name="g" horiz-adv-x="552" d="M544 500L448 20Q425 -96 354 -152T172 -208Q130 -208 80 -191T-16 -138L52 -32Q81 -53 112 -67T176 -82Q264 -82 294 6L318 84H316Q283 52 248 36T174 20Q111 20 70 62T28 194Q28 261 49 319T106 420T189
487T288 512Q320 512 348 496T390 450H392L414 500H544ZM238 150Q259 150 282 160T326 206L352 344Q343 364 329 373T300 382Q278 382 259 370T226 336T203 282T194 214Q194 181 206 166T238 150Z" />
<glyph unicode="h" glyph-name="h" horiz-adv-x="556" d="M148 696H308L274 534L250 446H254Q284 473 322 492T406 512Q468 512 496 480T524 382Q524 365 523 347T516 310L454 0H294L352 290Q355 304 357 314T360 334Q360 355 349 365T318 376Q297 376 277 363T230
320L168 0H8L148 696Z" />
<glyph unicode="i" glyph-name="i" horiz-adv-x="276" d="M108 500H268L168 0H8L108 500ZM214 564Q198 564 183 568T156 582T137 605T130 638Q130 656 137 672T158 701T188 720T226 728Q242 728 257 723T284 709T303 686T310 654Q310 615 283 590T214 564Z" />
<glyph unicode="j" glyph-name="j" horiz-adv-x="278" d="M170 2Q162 -37 147 -71T108 -132T50 -173T-30 -188Q-57 -188 -82 -183T-134 -164L-86 -50Q-65 -62 -44 -62Q-20 -62 -9 -46T12 10L110 500H270L170 2ZM216 564Q200 564 185 568T158 582T139 605T132 638Q132
656 139 672T160 701T190 720T228 728Q244 728 259 723T286 709T305 686T312 654Q312 615 285 590T216 564Z" />
<glyph unicode="k" glyph-name="k" horiz-adv-x="544" d="M148 696H308L232 320H236L400 500H576L370 278L488 0H328L260 186L192 118L168 0H8L148 696Z" />
<glyph unicode="l" glyph-name="l" horiz-adv-x="286" d="M148 696H308L200 160Q198 152 198 149T198 141Q198 127 204 122T218 116Q223 116 226 116T236 118L230 0Q216 -5 196 -8T148 -12Q86 -12 60 17T34 98Q34 113 35 129T42 166L148 696Z" />
<glyph unicode="m" glyph-name="m" horiz-adv-x="838" d="M106 500H236V436H240Q275 466 315 489T400 512Q454 512 479 490T516 428Q555 464 596 488T682 512Q744 512 772 480T800 382Q800 348 792 310L730 0H570L628 290Q631 304 633 314T636 334Q636 355 625
365T594 376Q565 376 512 320L448 0H288L346 290Q349 304 351 314T354 334Q354 355 343 365T314 376Q283 376 230 320L168 0H8L106 500Z" />
<glyph unicode="n" glyph-name="n" horiz-adv-x="562" d="M106 500H236V436H240Q275 466 316 489T406 512Q468 512 496 480T524 382Q524 348 516 310L454 0H294L352 290Q355 304 357 314T360 334Q360 355 349 365T318 376Q297 376 277 363T230 320L168 0H8L106 500Z" />
<glyph unicode="o" glyph-name="o" horiz-adv-x="540" d="M226 -12Q181 -12 144 3T81 45T41 111T26 196Q26 269 51 327T116 427T207 490T310 512Q355 512 392 497T455 455T495 389T510 304Q510 231 485 173T420 73T329 10T226 -12ZM292 384Q270 384 251 370T218
332T196 273T188 198Q188 160 201 138T244 116Q266 116 285 130T318 168T340 227T348 302Q348 340 335 362T292 384Z" />
<glyph unicode="p" glyph-name="p" horiz-adv-x="560" d="M156 -52L132 -176H-28L108 500H238L242 446H244Q277 476 315 494T390 512Q456 512 493 465T530 328Q530 257 508 195T449 87T364 15T264 -12Q235 -12 210 2T170 42H168L156 -52ZM318 382Q298 382 275
371T234 326L200 156Q208 136 222 127T252 118Q274 118 294 132T329 171T354 231T364 308Q364 347 352 364T318 382Z" />
<glyph unicode="q" glyph-name="q" horiz-adv-x="558" d="M320 62H318Q285 27 245 8T168 -12Q102 -12 65 35T28 172Q28 243 50 305T109 413T194 485T294 512Q326 512 355 496T398 450H400L422 500H550L414 -176H254L280 -52L320 62ZM240 118Q259 118 283 130T328
184L360 344Q351 364 336 373T306 382Q284 382 264 368T229 329T204 269T194 192Q194 153 206 136T240 118Z" />
<glyph unicode="r" glyph-name="r" horiz-adv-x="400" d="M106 500H236L232 402H236Q265 450 305 481T388 512Q409 512 421 510T442 502L390 364Q379 370 365 371T338 372Q306 372 279 351T222 280L168 0H8L106 500Z" />
<glyph unicode="s" glyph-name="s" horiz-adv-x="432" d="M82 162Q109 130 134 117T182 104Q205 104 221 113T238 138Q238 148 232 155T216 169T189 185T154 204Q136 214 119 228T88 259T66 298T58 344Q58 380 74 410T117 463T181 499T260 512Q314 512 356 489T430
432L344 350Q326 368 305 381T260 394Q236 394 222 384T208 358Q208 347 215 340T233 325T259 311T288 296Q306 286 324 274T356 244T379 206T388 156Q388 118 372 88T328 35T259 0T172 -12Q150 -12 125 -6T76 12T29 42T-10 86L82 162Z" />
<glyph unicode="t" glyph-name="t" horiz-adv-x="384" d="M106 376H42L66 494L138 500L182 628H316L292 500H400L376 376H264L226 188Q224 179 224 172T224 156Q224 112 272 112Q288 112 308 122L336 10Q315 2 284 -5T210 -12Q170 -12 142 -2T95 27T69 71T60 128Q60
145 62 161T68 194L106 376Z" />
<glyph unicode="u" glyph-name="u" horiz-adv-x="552" d="M444 0H314V64H310Q278 34 237 11T150 -12Q88 -12 60 20T32 118Q32 152 40 190L102 500H262L204 210Q201 196 199 186T196 166Q196 145 207 135T238 124Q258 124 277 137T320 180L382 500H542L444 0Z" />
<glyph unicode="v" glyph-name="v" horiz-adv-x="518" d="M60 500H220L230 272Q232 234 232 196T232 118H236Q253 157 268 195T300 272L398 500H554L304 0H120L60 500Z" />
<glyph unicode="w" glyph-name="w" horiz-adv-x="764" d="M73 500H231L226 278Q224 241 221 204T216 128H220Q234 166 247 204T276 278L367 500H503L508 278Q509 241 508 204T506 128H510Q524 166 535 203T560 278L640 500H788L580 0H394V186Q396 221 396 256T398
332H394Q380 291 369 256T344 186L272 0H92L73 500Z" />
<glyph unicode="x" glyph-name="x" horiz-adv-x="514" d="M168 268L84 500H246L271 423Q276 402 282 381T293 338H297Q308 359 320 380T344 423L382 500H552L360 232L450 0H286L260 76Q253 97 247 119T234 162H230Q218 141 205 120T179 76L133 0H-38L168 268Z" />
<glyph unicode="y" glyph-name="y" horiz-adv-x="518" d="M24 -52Q41 -62 62 -62Q85 -62 107 -47T143 -5L153 15L65 500H224L242 295Q245 263 246 222T248 144H252Q267 179 284 220T316 295L406 500H560L299 1Q271 -47 244 -83T187 -142T125 -176T52 -188Q37 -188
14 -182T-24 -166L24 -52V-52Z" />
<glyph unicode="z" glyph-name="z" horiz-adv-x="456" d="M8 90L248 376H84L108 500H472L454 408L214 124H404L380 0H-10L8 90Z" />
<glyph unicode="{" glyph-name="braceleft" horiz-adv-x="342" d="M44 -62Q44 -32 52 2T69 68T86 127T94 172Q94 195 80 212T24 232L44 324Q69 325 86 332T115 350T133 374T142 400Q146 423 148 441T152 478T156 516T164 562Q172 603 184 631T213 676T255 700T315
708H385L367 624H351Q323 624 311 610T291 556Q283 518 278 481T264 400Q252 340 227 313T160 276L159 272Q189 265 204 249T220 198Q220 173 213 142T198 78T183 16T176 -34Q176 -53 183 -60T214 -68H228L212 -152H144Q88 -152 66 -129T44 -62Z" />
<glyph unicode="|" glyph-name="bar" horiz-adv-x="264" d="M86 750H184V-250H86V750Z" />
<glyph unicode="}" glyph-name="braceright" horiz-adv-x="346" d="M309 618Q309 588 301 554T284 488T267 429T259 384Q259 361 273 344T329 324L309 232Q284 231 267 224T238 206T220 182T211 156Q206 133 204 115T201 78T197 40T189 -6Q181 -47 169 -75T140
-120T97 -144T38 -152H-32L-14 -68H2Q30 -68 42 -54T62 0Q70 38 75 75T89 156Q101 216 126 243T193 280L194 284Q164 291 149 307T133 358Q133 383 140 414T155 478T170 540T177 590Q177 609 170 616T139 624H125L141 708H209Q265 708 287 685T309 618Z" />
<glyph unicode="~" glyph-name="asciitilde" horiz-adv-x="520" d="M36 314Q71 374 110 398T188 422Q216 422 238 411T279 385T315 360T352 348Q391 348 418 402L498 348Q463 288 424 264T346 240Q317 240 296 251T255 277T219 302T182 314Q143 314 116 260L36 314Z" />
<glyph unicode="&#xa0;" glyph-name="uni00A0" horiz-adv-x="200" />
<glyph unicode="&#xa1;" glyph-name="exclamdown" horiz-adv-x="350" d="M196 -30L176 -170H16L48 -30L130 262H234L196 -30ZM228 512Q264 512 286 489T308 428Q308 408 300 388T278 352T243 326T198 316Q162 316 140 340T118 400Q118 421 126 441T148 477T183
502T228 512Z" />
<glyph unicode="&#xa2;" glyph-name="cent" horiz-adv-x="520" d="M309 449Q270 432 248 395T226 310Q226 245 263 216L309 449ZM462 128Q428 106 393 92T320 73L302 -20H216L234 73Q159 86 115 140T70 286Q70 350 92 401T152 491T237 552T336 584L354 678H440L421
584Q457 576 483 557T532 512L440 426Q416 448 396 455L346 200Q381 206 414 230L462 128Z" />
<glyph unicode="&#xa3;" glyph-name="sterling" horiz-adv-x="520" d="M240 134H466L442 0H-4L16 98Q72 121 107 163T150 262H56L76 370L145 376Q142 398 142 418Q142 471 161 515T214 590T292 639T388 656Q442 656 482 634T552 570L450 486Q433 507 418 517T380
528Q344 528 317 497T290 394Q290 389 290 385T291 376H432L410 262H294Q289 227 277 198T242 138L240 134Z" />
<glyph unicode="&#xa4;" glyph-name="currency" horiz-adv-x="520" d="M349 150Q323 139 296 134T242 128Q186 128 146 148L74 86L6 166L69 220Q52 254 52 296Q52 341 67 378T109 445L64 500L148 572L199 509Q251 532 306 532Q334 532 359 527T405 511L476 572L544
492L480 437Q496 402 496 364Q496 319 481 282T439 215L486 158L402 86L349 150ZM288 420Q271 420 255 412T226 389T206 354T198 308Q198 276 214 258T260 240Q277 240 293 248T322 271T342 306T350 352Q350 385 334 402T288 420Z" />
<glyph unicode="&#xa5;" glyph-name="yen" horiz-adv-x="520" d="M250 635L266 508Q270 475 274 442T285 377H288Q306 410 324 443T360 508L426 635H585L391 347H503L488 272H343L332 219H477L462 145H317L288 0H130L159 145H14L29 219H174L184 272H39L54 347H166L87
635H250Z" />
<glyph unicode="&#xa6;" glyph-name="brokenbar" horiz-adv-x="264" d="M86 750H184V316H86V750ZM184 202V-250H86V202H184Z" />
<glyph unicode="&#xa7;" glyph-name="section" horiz-adv-x="516" d="M182 330Q182 312 194 298T227 270T271 242T318 212Q334 222 343 236T352 274Q352 291 340 305T308 332T264 359T217 389Q202 380 192 366T182 330ZM416 522Q396 540 372 556T318 572Q300 572
288 563T276 536Q276 522 292 509T331 481T383 449T434 409T474 358T490 292Q490 237 463 199T387 134Q396 113 396 86Q396 46 382 14T341 -40T278 -75T196 -88Q146 -88 92 -65T-4 0L74 98Q98 74 133 52T204 30Q252 30 252 68Q252 83 237 96T199 123T149 155T100
194T62 244T46 312Q46 362 74 399T148 459Q132 488 132 520Q132 557 145 588T183 643T241 679T318 692Q366 692 412 671T496 610L416 522Z" />
<glyph unicode="&#xa8;" glyph-name="dieresis" horiz-adv-x="540" d="M236 566Q208 566 189 583T170 632Q170 648 176 663T194 689T220 707T254 714Q282 714 301 697T320 648Q320 613 296 590T236 566ZM436 566Q408 566 389 583T370 632Q370 648 376 663T394
689T420 707T454 714Q482 714 501 697T520 648Q520 613 496 590T436 566Z" />
<glyph unicode="&#xa9;" glyph-name="copyright" horiz-adv-x="674" d="M172 284Q172 337 192 380T245 453T318 499T398 516Q433 516 460 499T502 464L436 400Q424 414 411 419T384 424Q367 424 350 415T318 389T295 349T286 298Q286 262 304 241T358 220Q376
220 389 225T422 244L466 176Q434 150 400 139T332 128Q260 128 216 170T172 284ZM298 -8Q239 -8 190 13T104 71T48 159T28 270Q28 351 56 421T134 544T254 626T406 656Q464 656 513 635T599 577T655 489T676 378Q676 297 648 227T570 104T450 22T298 -8ZM400 588Q337
588 282 564T187 497T123 398T100 276Q100 233 112 194T150 125T214 78T304 60Q367 60 421 84T516 151T580 250T604 372Q604 415 591 454T553 523T489 570T400 588Z" />
<glyph unicode="&#xaa;" glyph-name="ordfeminine" horiz-adv-x="369" d="M52 374Q52 421 67 462T106 534T163 582T230 600Q251 600 268 588T294 558H298L314 592H404L338 260H248V300H244Q223 277 197 265T146 252Q102 252 77 283T52 374ZM194 342Q208 342 223
350T252 384L270 486Q265 498 256 504T238 510Q224 510 212 501T189 476T172 438T166 388Q166 364 174 353T194 342Z" />
<glyph unicode="&#xab;" glyph-name="guillemotleft" horiz-adv-x="480" d="M40 200L60 312L212 448L260 396L130 246L206 94L144 54L40 200ZM240 200L260 312L412 448L460 396L330 246L406 94L344 54L240 200Z" />
<glyph unicode="&#xac;" glyph-name="logicalnot" horiz-adv-x="520" d="M48 386H496V92H382V274H48V386Z" />
<glyph unicode="&#xad;" glyph-name="uni00AD" horiz-adv-x="328" d="M58 310H298L274 198H34L58 310Z" />
<glyph unicode="&#xae;" glyph-name="registered" horiz-adv-x="458" d="M220 610H308Q338 610 357 595T376 552Q376 532 364 515T328 488L352 416H292L276 474H252L240 416H180L220 610ZM274 516Q292 516 301 525T310 546Q310 555 305 560T286 566H270L260 516H274ZM262
308Q226 308 194 321T137 359T99 416T84 488Q84 531 99 572T142 645T209 696T296 716Q331 716 363 703T419 665T458 608T474 536Q474 492 459 451T415 379T348 328T262 308ZM292 664Q258 664 230 650T182 613T151 558T140 492Q140 464 149 440T174 398T214 370T266
360Q300 360 328 374T376 411T407 466T418 532Q418 560 409 584T384 626T344 654T292 664Z" />
<glyph unicode="&#xaf;" glyph-name="overscore" horiz-adv-x="540" d="M218 690H492L472 590H198L218 690Z" />
<glyph unicode="&#xb0;" glyph-name="degree" horiz-adv-x="362" d="M224 392Q165 392 129 428T92 524Q92 558 105 587T140 639T191 673T252 686Q311 686 347 650T384 554Q384 520 371 491T336 439T284 405T224 392ZM246 610Q214 610 195 585T176 524Q176 501
189 485T230 468Q262 468 281 493T300 554Q300 577 287 593T246 610Z" />
<glyph unicode="&#xb1;" glyph-name="plusminus" horiz-adv-x="520" d="M212 310H48V422H214V568H330V422H496V310H328V164H212V310ZM48 0V112H496V0H48Z" />
<glyph unicode="&#xb2;" glyph-name="two.sups" horiz-adv-x="368" d="M84 502Q182 564 233 614T284 704Q284 721 274 731T242 742Q228 742 216 733T188 710L124 778Q160 810 191 826T264 842Q327 842 363 811T400 726Q400 675 365 630T276 538H376L356 440H72L84 502Z" />
<glyph unicode="&#xb3;" glyph-name="three.sups" horiz-adv-x="364" d="M150 562Q177 520 217 520Q243 520 257 531T272 560Q272 581 258 592T194 604L208 673Q234 673 250 677T275 689T287 705T290 723Q290 736 281 744T254 752Q237 752 226 748T194 730L146
806Q182 827 213 834T281 842Q336 842 371 815T406 744Q406 706 389 681T330 638Q356 623 370 602T384 554Q384 524 372 501T338 461T289 437T228 428Q172 428 136 450T76 508L150 562Z" />
<glyph unicode="&#xb4;" glyph-name="acute" horiz-adv-x="540" d="M360 726H518L364 574H244L360 726Z" />
<glyph unicode="&#xb5;" glyph-name="uni00B5" horiz-adv-x="554" d="M208 210Q205 196 203 186T200 166Q200 145 211 135T242 124Q262 124 281 137T324 179L386 500H544L448 0H318V64H314Q296 35 270 16T216 -4Q199 -4 186 -1T164 14L158 -38L131 -176H-28L106
500H266L208 210Z" />
<glyph unicode="&#xb6;" glyph-name="paragraph" horiz-adv-x="636" d="M464 650H624L480 -80H320L464 650ZM282 190Q239 190 201 202T133 238T86 296T68 376Q68 449 92 501T158 586T254 634T368 650H410L318 190H282Z" />
<glyph unicode="&#xb7;" glyph-name="middot" horiz-adv-x="310" d="M154 228Q118 228 96 251T74 312Q74 332 82 352T104 388T139 414T184 424Q220 424 242 400T264 340Q264 319 256 299T234 263T199 238T154 228Z" />
<glyph unicode="&#xb8;" glyph-name="cedilla" horiz-adv-x="540" d="M176 4H268L240 -42Q260 -50 272 -64T284 -102Q284 -133 268 -155T223 -191T159 -213T82 -222L78 -160Q114 -157 140 -146T166 -114Q166 -103 158 -94T122 -76L176 4Z" />
<glyph unicode="&#xb9;" glyph-name="one.sups" horiz-adv-x="384" d="M252 714H166L180 786Q201 789 217 793T246 802T273 814T300 830H390L314 440H196L252 714Z" />
<glyph unicode="&#xba;" glyph-name="ordmasculine" horiz-adv-x="362" d="M186 252Q157 252 133 261T90 288T61 332T50 391Q50 439 66 477T109 543T170 585T240 600Q268 600 293 591T336 564T365 520T376 461Q376 413 360 375T317 309T256 267T186 252ZM230 512Q198
512 180 478T162 392Q162 368 170 354T196 340Q228 340 246 374T264 460Q264 484 256 498T230 512Z" />
<glyph unicode="&#xbb;" glyph-name="guillemotright" horiz-adv-x="480" d="M248 302L228 190L76 54L28 106L158 256L82 408L144 448L248 302ZM448 302L428 190L276 54L228 106L358 256L282 408L344 448L448 302Z" />
<glyph unicode="&#xbc;" glyph-name="onequarter" horiz-adv-x="788" d="M186 544H100L114 616Q135 619 151 623T180 632T207 644T234 660H324L248 270H130L186 544ZM124 -12L594 672H684L214 -12H124ZM610 158L618 196L646 320H642L584 234L526 158H610ZM750
82H694L678 0H578L595 82H408L420 142L608 390H754L709 158H766L750 82Z" />
<glyph unicode="&#xbd;" glyph-name="onehalf" horiz-adv-x="828" d="M182 544H96L110 616Q131 619 147 623T176 632T203 644T230 660H320L244 270H126L182 544ZM114 -12L584 672H674L204 -12H114ZM464 62Q562 124 613 174T664 264Q664 281 654 291T622 302Q608
302 596 293T568 270L504 338Q540 370 571 386T644 402Q707 402 743 371T780 286Q780 235 745 190T656 98H756L736 0H452L464 62Z" />
<glyph unicode="&#xbe;" glyph-name="threequarters" horiz-adv-x="798" d="M110 392Q137 350 177 350Q203 350 217 361T232 390Q232 411 218 422T154 434L168 503Q194 503 210 507T235 519T247 535T250 553Q250 566 241 574T214 582Q197 582 186 578T154 560L106
636Q142 657 173 664T241 672Q296 672 331 645T366 574Q366 536 349 511T290 468Q316 453 330 432T344 384Q344 354 332 331T298 291T249 267T188 258Q132 258 96 280T36 338L110 392ZM144 -12L614 672H704L234 -12H144ZM620 158L628 196L656 320H652L594 234L536
158H620ZM760 82H704L688 0H588L605 82H418L430 142L618 390H764L719 158H776L760 82Z" />
<glyph unicode="&#xbf;" glyph-name="questiondown" horiz-adv-x="458" d="M304 512Q340 512 362 489T384 428Q384 408 376 388T354 352T319 326T274 316Q238 316 216 340T194 400Q194 421 202 441T224 477T259 502T304 512ZM326 256Q321 217 307 189T274 139T234
100T196 68T168 36T156 -2Q156 -26 171 -40T212 -54Q244 -54 278 -20L358 -110Q283 -182 192 -182Q149 -182 114 -172T54 -141T14 -92T0 -26Q0 12 12 40T44 90T87 130T131 168T168 211T190 268L326 256Z" />
<glyph unicode="&#xc0;" glyph-name="Agrave" horiz-adv-x="562" d="M352 268L350 344Q348 391 347 435T346 530H342Q322 482 305 437T266 344L232 268H352ZM356 148H177L110 0H-66L274 650H466L528 0H360L356 148ZM224 822H386L438 700H318L224 822Z" />
<glyph unicode="&#xc1;" glyph-name="Aacute" horiz-adv-x="562" d="M352 268L350 344Q348 391 347 435T346 530H342Q322 482 305 437T266 344L232 268H352ZM356 148H177L110 0H-66L274 650H466L528 0H360L356 148ZM382 822H554L412 700H282L382 822Z" />
<glyph unicode="&#xc2;" glyph-name="Acircumflex" horiz-adv-x="562" d="M352 268L350 344Q348 391 347 435T346 530H342Q322 482 305 437T266 344L232 268H352ZM356 148H177L110 0H-66L274 650H466L528 0H360L356 148ZM310 822H466L534 700H418L380 760H378L320
700H194L310 822Z" />
<glyph unicode="&#xc3;" glyph-name="Atilde" horiz-adv-x="562" d="M352 268L350 344Q348 391 347 435T346 530H342Q322 482 305 437T266 344L232 268H352ZM356 148H177L110 0H-66L274 650H466L528 0H360L356 148ZM194 700Q214 771 250 805T323 840Q346 840 361
833T389 818T413 803T440 796Q451 796 460 805T480 838H562Q542 767 506 733T433 698Q410 698 395 705T367 720T343 735T316 742Q305 742 296 733T276 700H194Z" />
<glyph unicode="&#xc4;" glyph-name="Adieresis" horiz-adv-x="562" d="M352 268L350 344Q348 391 347 435T346 530H342Q322 482 305 437T266 344L232 268H352ZM356 148H177L110 0H-66L274 650H466L528 0H360L356 148ZM270 696Q243 696 225 713T206 760Q206 775
212 790T229 817T255 836T288 844Q314 844 333 827T352 780Q352 765 346 750T329 723T303 704T270 696ZM470 696Q443 696 425 713T406 760Q406 775 412 790T429 817T455 836T488 844Q514 844 533 827T552 780Q552 765 546 750T529 723T503 704T470 696Z" />
<glyph unicode="&#xc5;" glyph-name="Aring" horiz-adv-x="562" d="M352 268L350 344Q348 391 347 435T346 530H342Q322 482 305 437T266 344L232 268H352ZM356 148H177L110 0H-66L274 650H466L528 0H360L356 148ZM378 696Q356 696 337 701T302 716T279 744T270
784Q270 807 279 828T305 864T343 889T390 898Q411 898 430 893T465 877T489 849T498 810Q498 786 489 765T463 729T425 705T378 696ZM388 838Q370 838 358 823T346 790Q346 776 354 766T380 756Q397 756 409 770T422 804Q422 818 414 828T388 838Z" />
<glyph unicode="&#xc6;" glyph-name="AE" horiz-adv-x="852" d="M403 264L457 536H454Q427 489 402 447T350 360L295 264H403ZM612 516L590 402H784L758 268H564L536 134H774L748 0H350L378 140H224L144 0H-36L372 650H868L842 516H612Z" />
<glyph unicode="&#xc7;" glyph-name="Ccedilla" horiz-adv-x="574" d="M56 264Q56 351 83 424T159 550T270 632T406 662Q463 662 509 635T584 556L476 472Q441 524 398 524Q363 524 331 505T274 452T235 372T220 274Q220 203 249 165T344 126Q370 126 395 139T444
172L510 70Q496 57 476 43T431 16T375 -4T310 -12Q253 -12 206 6T126 60T75 146T56 264ZM250 4H342L314 -42Q334 -50 346 -64T358 -102Q358 -133 342 -155T297 -191T233 -213T156 -222L152 -160Q188 -157 214 -146T240 -114Q240 -103 232 -94T196 -76L250 4Z" />
<glyph unicode="&#xc8;" glyph-name="Egrave" horiz-adv-x="536" d="M156 650H552L526 516H288L266 402H468L442 268H240L212 134H458L432 0H26L156 650ZM224 822H386L438 700H318L224 822Z" />
<glyph unicode="&#xc9;" glyph-name="Eacute" horiz-adv-x="536" d="M156 650H552L526 516H288L266 402H468L442 268H240L212 134H458L432 0H26L156 650ZM382 822H554L412 700H282L382 822Z" />
<glyph unicode="&#xca;" glyph-name="Ecircumflex" horiz-adv-x="536" d="M156 650H552L526 516H288L266 402H468L442 268H240L212 134H458L432 0H26L156 650ZM310 822H466L534 700H418L380 760H378L320 700H194L310 822Z" />
<glyph unicode="&#xcb;" glyph-name="Edieresis" horiz-adv-x="536" d="M156 650H552L526 516H288L266 402H468L442 268H240L212 134H458L432 0H26L156 650ZM270 696Q243 696 225 713T206 760Q206 775 212 790T229 817T255 836T288 844Q314 844 333 827T352 780Q352
765 346 750T329 723T303 704T270 696ZM470 696Q443 696 425 713T406 760Q406 775 412 790T429 817T455 836T488 844Q514 844 533 827T552 780Q552 765 546 750T529 723T503 704T470 696Z" />
<glyph unicode="&#xcc;" glyph-name="Igrave" horiz-adv-x="310" d="M156 650H316L186 0H26L156 650ZM92 822H254L306 700H186L92 822Z" />
<glyph unicode="&#xcd;" glyph-name="Iacute" horiz-adv-x="310" d="M156 650H316L186 0H26L156 650ZM250 822H422L280 700H150L250 822Z" />
<glyph unicode="&#xce;" glyph-name="Icircumflex" horiz-adv-x="310" d="M156 650H316L186 0H26L156 650ZM178 822H334L402 700H286L248 760H246L188 700H62L178 822Z" />
<glyph unicode="&#xcf;" glyph-name="Idieresis" horiz-adv-x="310" d="M156 650H316L186 0H26L156 650ZM138 696Q111 696 93 713T74 760Q74 775 80 790T97 817T123 836T156 844Q182 844 201 827T220 780Q220 765 214 750T197 723T171 704T138 696ZM338 696Q311
696 293 713T274 760Q274 775 280 790T297 817T323 836T356 844Q382 844 401 827T420 780Q420 765 414 750T397 723T371 704T338 696Z" />
<glyph unicode="&#xd0;" glyph-name="Eth" horiz-adv-x="644" d="M254 128Q294 128 330 141T394 185T438 264T454 384Q454 422 444 448T417 491T375 515T322 522H308L279 376H394L378 300H264L230 128H254ZM326 650Q394 650 448 635T540 588T598 508T618 394Q618
295 591 221T515 98T400 25T258 0H44L104 300H34L48 370L119 376L174 650H326Z" />
<glyph unicode="&#xd1;" glyph-name="Ntilde" horiz-adv-x="652" d="M156 650H310L400 342L432 196H436Q438 222 440 253T445 316T452 380T462 442L504 650H656L526 0H372L282 308L252 454H248Q243 398 238 334T220 210L178 0H26L156 650ZM246 700Q266 771 302
805T375 840Q398 840 413 833T441 818T465 803T492 796Q503 796 512 805T532 838H614Q594 767 558 733T485 698Q462 698 447 705T419 720T395 735T368 742Q357 742 348 733T328 700H246Z" />
<glyph unicode="&#xd2;" glyph-name="Ograve" horiz-adv-x="670" d="M308 -12Q252 -12 206 6T126 60T75 146T56 264Q56 355 84 428T159 554T266 634T392 662Q448 662 494 644T574 590T625 504T644 386Q644 295 616 222T541 96T433 16T308 -12ZM384 524Q356 524
327 506T274 455T235 376T220 274Q220 203 245 165T316 126Q344 126 373 144T426 195T465 274T480 376Q480 447 455 485T384 524ZM278 822H440L492 700H372L278 822Z" />
<glyph unicode="&#xd3;" glyph-name="Oacute" horiz-adv-x="670" d="M308 -12Q252 -12 206 6T126 60T75 146T56 264Q56 355 84 428T159 554T266 634T392 662Q448 662 494 644T574 590T625 504T644 386Q644 295 616 222T541 96T433 16T308 -12ZM384 524Q356 524
327 506T274 455T235 376T220 274Q220 203 245 165T316 126Q344 126 373 144T426 195T465 274T480 376Q480 447 455 485T384 524ZM436 822H608L466 700H336L436 822Z" />
<glyph unicode="&#xd4;" glyph-name="Ocircumflex" horiz-adv-x="670" d="M308 -12Q252 -12 206 6T126 60T75 146T56 264Q56 355 84 428T159 554T266 634T392 662Q448 662 494 644T574 590T625 504T644 386Q644 295 616 222T541 96T433 16T308 -12ZM384 524Q356
524 327 506T274 455T235 376T220 274Q220 203 245 165T316 126Q344 126 373 144T426 195T465 274T480 376Q480 447 455 485T384 524ZM364 822H520L588 700H472L434 760H432L374 700H248L364 822Z" />
<glyph unicode="&#xd5;" glyph-name="Otilde" horiz-adv-x="670" d="M308 -12Q252 -12 206 6T126 60T75 146T56 264Q56 355 84 428T159 554T266 634T392 662Q448 662 494 644T574 590T625 504T644 386Q644 295 616 222T541 96T433 16T308 -12ZM384 524Q356 524
327 506T274 455T235 376T220 274Q220 203 245 165T316 126Q344 126 373 144T426 195T465 274T480 376Q480 447 455 485T384 524ZM248 700Q268 771 304 805T377 840Q400 840 415 833T443 818T467 803T494 796Q505 796 514 805T534 838H616Q596 767 560 733T487
698Q464 698 449 705T421 720T397 735T370 742Q359 742 350 733T330 700H248Z" />
<glyph unicode="&#xd6;" glyph-name="Odieresis" horiz-adv-x="670" d="M308 -12Q252 -12 206 6T126 60T75 146T56 264Q56 355 84 428T159 554T266 634T392 662Q448 662 494 644T574 590T625 504T644 386Q644 295 616 222T541 96T433 16T308 -12ZM384 524Q356
524 327 506T274 455T235 376T220 274Q220 203 245 165T316 126Q344 126 373 144T426 195T465 274T480 376Q480 447 455 485T384 524ZM324 696Q297 696 279 713T260 760Q260 775 266 790T283 817T309 836T342 844Q368 844 387 827T406 780Q406 765 400 750T383
723T357 704T324 696ZM524 696Q497 696 479 713T460 760Q460 775 466 790T483 817T509 836T542 844Q568 844 587 827T606 780Q606 765 600 750T583 723T557 704T524 696Z" />
<glyph unicode="&#xd7;" glyph-name="multiply" horiz-adv-x="520" d="M140 114L62 192L194 330L62 468L140 546L272 408L404 546L482 468L350 330L482 192L404 114L272 252L140 114Z" />
<glyph unicode="&#xd8;" glyph-name="Oslash" horiz-adv-x="670" d="M253 155Q277 126 316 126Q344 126 373 144T426 195T465 274T480 376V387L253 155ZM450 492Q426 524 384 524Q356 524 327 506T274 455T235 376T220 274V257L450 492ZM617 526Q630 497 637 462T644
386Q644 295 616 222T541 96T433 16T308 -12Q209 -12 143 43L58 -44L-12 20L85 119Q56 180 56 264Q56 355 84 428T159 554T266 634T392 662Q494 662 560 604L656 702L726 638L617 526Z" />
<glyph unicode="&#xd9;" glyph-name="Ugrave" horiz-adv-x="654" d="M152 650H312L242 300Q239 280 237 262T234 226Q234 176 252 151T320 126Q363 126 389 162T432 282L506 650H662L588 286Q558 132 493 60T316 -12Q194 -12 134 44T74 222Q74 245 78 275T88 332L152
650ZM272 822H434L486 700H366L272 822Z" />
<glyph unicode="&#xda;" glyph-name="Uacute" horiz-adv-x="654" d="M152 650H312L242 300Q239 280 237 262T234 226Q234 176 252 151T320 126Q363 126 389 162T432 282L506 650H662L588 286Q558 132 493 60T316 -12Q194 -12 134 44T74 222Q74 245 78 275T88 332L152
650ZM430 822H602L460 700H330L430 822Z" />
<glyph unicode="&#xdb;" glyph-name="Ucircumflex" horiz-adv-x="654" d="M152 650H312L242 300Q239 280 237 262T234 226Q234 176 252 151T320 126Q363 126 389 162T432 282L506 650H662L588 286Q558 132 493 60T316 -12Q194 -12 134 44T74 222Q74 245 78 275T88
332L152 650ZM358 822H514L582 700H466L428 760H426L368 700H242L358 822Z" />
<glyph unicode="&#xdc;" glyph-name="Udieresis" horiz-adv-x="654" d="M152 650H312L242 300Q239 280 237 262T234 226Q234 176 252 151T320 126Q363 126 389 162T432 282L506 650H662L588 286Q558 132 493 60T316 -12Q194 -12 134 44T74 222Q74 245 78 275T88
332L152 650ZM318 696Q291 696 273 713T254 760Q254 775 260 790T277 817T303 836T336 844Q362 844 381 827T400 780Q400 765 394 750T377 723T351 704T318 696ZM518 696Q491 696 473 713T454 760Q454 775 460 790T477 817T503 836T536 844Q562 844 581 827T600
780Q600 765 594 750T577 723T551 704T518 696Z" />
<glyph unicode="&#xdd;" glyph-name="Yacute" horiz-adv-x="528" d="M182 228L79 650H245L266 506Q272 468 277 435T288 362H292Q312 401 329 435T368 508L446 650H618L342 228L296 0H137L182 228ZM358 822H530L388 700H258L358 822Z" />
<glyph unicode="&#xde;" glyph-name="Thorn" horiz-adv-x="608" d="M156 660H316L296 560H374Q418 560 457 551T524 520T569 465T586 382Q586 311 561 262T493 181T395 136T278 122H208L184 0H26L156 660ZM296 248Q359 248 393 276T428 358Q428 397 406 415T342
434H270L234 248H296Z" />
<glyph unicode="&#xdf;" glyph-name="germandbls" horiz-adv-x="630" d="M108 498Q117 543 138 581T191 648T266 692T364 708Q401 708 437 699T502 671T548 623T566 552Q566 511 550 485T513 438T477 402T460 366Q460 347 479 330T521 292T563 242T582 170Q582
132 567 99T526 41T464 2T388 -12Q349 -12 311 -3T238 30L302 136Q320 124 341 115T386 106Q409 106 421 119T434 154Q434 175 414 192T369 228T325 274T304 338Q304 370 321 392T358 435T395 476T412 528Q412 554 400 568T358 582Q339 582 324 573T296 549T276
513T262 468L168 0H8L108 498Z" />
<glyph unicode="&#xe0;" glyph-name="agrave" horiz-adv-x="558" d="M28 172Q28 243 50 305T109 413T194 485T294 512Q326 512 355 496T398 450H400L422 500H550L450 0H320V62H318Q285 27 245 8T168 -12Q102 -12 65 35T28 172ZM240 118Q260 118 284 130T328 184L360
344Q351 364 336 373T306 382Q284 382 264 368T229 329T204 269T194 192Q194 153 206 136T240 118ZM210 726H356L412 574H302L210 726Z" />
<glyph unicode="&#xe1;" glyph-name="aacute" horiz-adv-x="558" d="M28 172Q28 243 50 305T109 413T194 485T294 512Q326 512 355 496T398 450H400L422 500H550L450 0H320V62H318Q285 27 245 8T168 -12Q102 -12 65 35T28 172ZM240 118Q260 118 284 130T328 184L360
344Q351 364 336 373T306 382Q284 382 264 368T229 329T204 269T194 192Q194 153 206 136T240 118ZM360 726H518L364 574H244L360 726Z" />
<glyph unicode="&#xe2;" glyph-name="acircumflex" horiz-adv-x="558" d="M28 172Q28 243 50 305T109 413T194 485T294 512Q326 512 355 496T398 450H400L422 500H550L450 0H320V62H318Q285 27 245 8T168 -12Q102 -12 65 35T28 172ZM240 118Q260 118 284 130T328
184L360 344Q351 364 336 373T306 382Q284 382 264 368T229 329T204 269T194 192Q194 153 206 136T240 118ZM300 726H426L488 574H386L354 650H350L288 574H178L300 726Z" />
<glyph unicode="&#xe3;" glyph-name="atilde" horiz-adv-x="558" d="M28 172Q28 243 50 305T109 413T194 485T294 512Q326 512 355 496T398 450H400L422 500H550L450 0H320V62H318Q285 27 245 8T168 -12Q102 -12 65 35T28 172ZM240 118Q260 118 284 130T328 184L360
344Q351 364 336 373T306 382Q284 382 264 368T229 329T204 269T194 192Q194 153 206 136T240 118ZM172 576Q192 647 227 680T299 714Q322 714 337 708T365 693T389 679T416 672Q427 672 435 680T454 712H536Q516 641 481 608T409 574Q386 574 371 580T343 595T319
609T292 616Q281 616 273 608T254 576H172Z" />
<glyph unicode="&#xe4;" glyph-name="adieresis" horiz-adv-x="558" d="M28 172Q28 243 50 305T109 413T194 485T294 512Q326 512 355 496T398 450H400L422 500H550L450 0H320V62H318Q285 27 245 8T168 -12Q102 -12 65 35T28 172ZM240 118Q260 118 284 130T328
184L360 344Q351 364 336 373T306 382Q284 382 264 368T229 329T204 269T194 192Q194 153 206 136T240 118ZM236 566Q208 566 189 583T170 632Q170 648 176 663T194 689T220 707T254 714Q282 714 301 697T320 648Q320 613 296 590T236 566ZM436 566Q408 566 389
583T370 632Q370 648 376 663T394 689T420 707T454 714Q482 714 501 697T520 648Q520 613 496 590T436 566Z" />
<glyph unicode="&#xe5;" glyph-name="aring" horiz-adv-x="558" d="M28 172Q28 243 50 305T109 413T194 485T294 512Q326 512 355 496T398 450H400L422 500H550L450 0H320V62H318Q285 27 245 8T168 -12Q102 -12 65 35T28 172ZM240 118Q260 118 284 130T328 184L360
344Q351 364 336 373T306 382Q284 382 264 368T229 329T204 269T194 192Q194 153 206 136T240 118ZM344 550Q297 550 268 574T238 642Q238 667 247 688T271 724T308 749T356 758Q403 758 432 734T462 666Q462 641 453 620T429 584T391 559T344 550ZM354 698Q337
698 326 683T314 646Q314 631 321 621T346 610Q363 610 374 625T386 662Q386 676 379 687T354 698Z" />
<glyph unicode="&#xe6;" glyph-name="ae" horiz-adv-x="752" d="M18 114Q18 169 42 207T106 268T201 301T316 314V326Q316 359 301 373T256 388Q229 388 199 379T132 352L98 462Q145 485 195 498T296 512Q381 512 418 456Q450 483 486 497T558 512Q604 512 635
497T686 456T715 396T724 322Q724 303 721 284T713 249T704 220T696 202H436Q435 177 442 160T462 131T493 114T532 108Q552 108 574 118T614 140L670 40Q641 19 597 4T496 -12Q443 -12 401 10T337 63Q294 28 251 8T154 -12Q125 -12 100 -3T57 22T29 62T18 114ZM590
298Q592 309 593 315T594 330Q594 356 582 373T538 390Q512 390 488 368T448 298H590ZM296 218Q230 216 202 196T174 146Q174 129 186 120T220 110Q238 110 258 122T298 158Q296 172 295 186T296 218Z" />
<glyph unicode="&#xe7;" glyph-name="ccedilla" horiz-adv-x="446" d="M26 196Q26 259 48 316T111 416T206 486T326 512Q374 512 409 493T462 450L374 356Q360 370 347 377T316 384Q289 384 266 370T226 330T200 270T190 198Q190 160 208 138T262 116Q285 116
300 124T330 144L396 46Q367 25 327 7T226 -12Q184 -12 148 2T84 42T42 107T26 196ZM166 4H258L230 -42Q250 -50 262 -64T274 -102Q274 -133 258 -155T213 -191T149 -213T72 -222L68 -160Q104 -157 130 -146T156 -114Q156 -103 148 -94T112 -76L166 4Z" />
<glyph unicode="&#xe8;" glyph-name="egrave" horiz-adv-x="502" d="M26 204Q26 273 51 329T116 426T207 489T308 512Q354 512 385 497T436 456T465 396T474 322Q474 303 471 284T463 249T454 220T446 202H176Q178 152 207 130T280 108Q301 108 324 118T364 140L420
40Q390 19 343 4T234 -12Q188 -12 150 3T85 46T42 114T26 204ZM340 298Q342 304 343 312T344 330Q344 356 332 373T288 390Q259 390 232 368T188 298H340ZM202 726H348L404 574H294L202 726Z" />
<glyph unicode="&#xe9;" glyph-name="eacute" horiz-adv-x="502" d="M26 204Q26 273 51 329T116 426T207 489T308 512Q354 512 385 497T436 456T465 396T474 322Q474 303 471 284T463 249T454 220T446 202H176Q178 152 207 130T280 108Q301 108 324 118T364 140L420
40Q390 19 343 4T234 -12Q188 -12 150 3T85 46T42 114T26 204ZM340 298Q342 304 343 312T344 330Q344 356 332 373T288 390Q259 390 232 368T188 298H340ZM352 726H510L356 574H236L352 726Z" />
<glyph unicode="&#xea;" glyph-name="ecircumflex" horiz-adv-x="502" d="M26 204Q26 273 51 329T116 426T207 489T308 512Q354 512 385 497T436 456T465 396T474 322Q474 303 471 284T463 249T454 220T446 202H176Q178 152 207 130T280 108Q301 108 324 118T364
140L420 40Q390 19 343 4T234 -12Q188 -12 150 3T85 46T42 114T26 204ZM340 298Q342 304 343 312T344 330Q344 356 332 373T288 390Q259 390 232 368T188 298H340ZM292 726H418L480 574H378L346 650H342L280 574H170L292 726Z" />
<glyph unicode="&#xeb;" glyph-name="edieresis" horiz-adv-x="502" d="M26 204Q26 273 51 329T116 426T207 489T308 512Q354 512 385 497T436 456T465 396T474 322Q474 303 471 284T463 249T454 220T446 202H176Q178 152 207 130T280 108Q301 108 324 118T364
140L420 40Q390 19 343 4T234 -12Q188 -12 150 3T85 46T42 114T26 204ZM340 298Q342 304 343 312T344 330Q344 356 332 373T288 390Q259 390 232 368T188 298H340ZM228 566Q200 566 181 583T162 632Q162 648 168 663T186 689T212 707T246 714Q274 714 293 697T312
648Q312 613 288 590T228 566ZM428 566Q400 566 381 583T362 632Q362 648 368 663T386 689T412 707T446 714Q474 714 493 697T512 648Q512 613 488 590T428 566Z" />
<glyph unicode="&#xec;" glyph-name="igrave" horiz-adv-x="276" d="M108 500H268L168 0H8L108 500ZM74 726H220L276 574H166L74 726Z" />
<glyph unicode="&#xed;" glyph-name="iacute" horiz-adv-x="276" d="M108 500H268L168 0H8L108 500ZM224 726H382L228 574H108L224 726Z" />
<glyph unicode="&#xee;" glyph-name="icircumflex" horiz-adv-x="276" d="M108 500H268L168 0H8L108 500ZM164 726H290L352 574H250L218 650H214L152 574H42L164 726Z" />
<glyph unicode="&#xef;" glyph-name="idieresis" horiz-adv-x="276" d="M108 500H268L168 0H8L108 500ZM100 566Q72 566 53 583T34 632Q34 648 40 663T58 689T84 707T118 714Q146 714 165 697T184 648Q184 613 160 590T100 566ZM300 566Q272 566 253 583T234 632Q234
648 240 663T258 689T284 707T318 714Q346 714 365 697T384 648Q384 613 360 590T300 566Z" />
<glyph unicode="&#xf0;" glyph-name="eth" horiz-adv-x="542" d="M240 116Q286 116 315 165T353 295Q342 313 323 325T280 338Q253 338 233 326T200 293T181 248T174 198Q174 163 190 140T240 116ZM440 584Q471 536 487 481T504 360Q504 292 488 226T437 107T351
21T226 -12Q186 -12 151 1T88 40T46 102T30 186Q30 235 45 283T89 371T160 434T258 458Q287 458 311 447T353 412Q344 481 312 533L168 476L138 550L258 597Q242 611 224 624T184 652L256 744Q331 706 388 649L532 706L562 632L440 584Z" />
<glyph unicode="&#xf1;" glyph-name="ntilde" horiz-adv-x="562" d="M106 500H236V436H240Q275 466 316 489T406 512Q468 512 496 480T524 382Q524 348 516 310L454 0H294L352 290Q355 304 357 314T360 334Q360 355 349 365T318 376Q297 376 277 363T230 320L168
0H8L106 500ZM204 576Q224 647 259 680T331 714Q354 714 369 708T397 693T421 679T448 672Q459 672 467 680T486 712H568Q548 641 513 608T441 574Q418 574 403 580T375 595T351 609T324 616Q313 616 305 608T286 576H204Z" />
<glyph unicode="&#xf2;" glyph-name="ograve" horiz-adv-x="540" d="M226 -12Q181 -12 144 3T81 45T41 111T26 196Q26 269 51 327T116 427T207 490T310 512Q355 512 392 497T455 455T495 389T510 304Q510 231 485 173T420 73T329 10T226 -12ZM292 384Q270 384
251 370T218 332T196 273T188 198Q188 160 201 138T244 116Q266 116 285 130T318 168T340 227T348 302Q348 340 335 362T292 384ZM210 726H356L412 574H302L210 726Z" />
<glyph unicode="&#xf3;" glyph-name="oacute" horiz-adv-x="540" d="M226 -12Q181 -12 144 3T81 45T41 111T26 196Q26 269 51 327T116 427T207 490T310 512Q355 512 392 497T455 455T495 389T510 304Q510 231 485 173T420 73T329 10T226 -12ZM292 384Q270 384
251 370T218 332T196 273T188 198Q188 160 201 138T244 116Q266 116 285 130T318 168T340 227T348 302Q348 340 335 362T292 384ZM360 726H518L364 574H244L360 726Z" />
<glyph unicode="&#xf4;" glyph-name="ocircumflex" horiz-adv-x="540" d="M226 -12Q181 -12 144 3T81 45T41 111T26 196Q26 269 51 327T116 427T207 490T310 512Q355 512 392 497T455 455T495 389T510 304Q510 231 485 173T420 73T329 10T226 -12ZM292 384Q270
384 251 370T218 332T196 273T188 198Q188 160 201 138T244 116Q266 116 285 130T318 168T340 227T348 302Q348 340 335 362T292 384ZM300 726H426L488 574H386L354 650H350L288 574H178L300 726Z" />
<glyph unicode="&#xf5;" glyph-name="otilde" horiz-adv-x="540" d="M226 -12Q181 -12 144 3T81 45T41 111T26 196Q26 269 51 327T116 427T207 490T310 512Q355 512 392 497T455 455T495 389T510 304Q510 231 485 173T420 73T329 10T226 -12ZM292 384Q270 384
251 370T218 332T196 273T188 198Q188 160 201 138T244 116Q266 116 285 130T318 168T340 227T348 302Q348 340 335 362T292 384ZM172 576Q192 647 227 680T299 714Q322 714 337 708T365 693T389 679T416 672Q427 672 435 680T454 712H536Q516 641 481 608T409
574Q386 574 371 580T343 595T319 609T292 616Q281 616 273 608T254 576H172Z" />
<glyph unicode="&#xf6;" glyph-name="odieresis" horiz-adv-x="540" d="M226 -12Q181 -12 144 3T81 45T41 111T26 196Q26 269 51 327T116 427T207 490T310 512Q355 512 392 497T455 455T495 389T510 304Q510 231 485 173T420 73T329 10T226 -12ZM292 384Q270 384
251 370T218 332T196 273T188 198Q188 160 201 138T244 116Q266 116 285 130T318 168T340 227T348 302Q348 340 335 362T292 384ZM236 566Q208 566 189 583T170 632Q170 648 176 663T194 689T220 707T254 714Q282 714 301 697T320 648Q320 613 296 590T236 566ZM436
566Q408 566 389 583T370 632Q370 648 376 663T394 689T420 707T454 714Q482 714 501 697T520 648Q520 613 496 590T436 566Z" />
<glyph unicode="&#xf7;" glyph-name="divide" horiz-adv-x="520" d="M272 430Q236 430 211 453T186 512Q186 547 211 569T272 592Q308 592 333 570T358 512Q358 476 333 453T272 430ZM272 68Q236 68 211 90T186 148Q186 183 211 206T272 230Q308 230 333 207T358
148Q358 112 333 90T272 68ZM48 274V386H496V274H48Z" />
<glyph unicode="&#xf8;" glyph-name="oslash" horiz-adv-x="540" d="M198 128Q212 112 238 112Q270 112 293 129T331 173T353 232T360 295L198 128ZM339 369Q323 388 298 388Q266 388 244 371T206 326T184 265T176 201L339 369ZM481 420Q510 371 510 304Q510 230
485 172T420 73T329 10T226 -12Q153 -12 101 28L48 -26L0 20L56 78Q42 102 34 131T26 196Q26 269 51 327T116 427T207 490T310 512Q385 512 438 470L490 524L540 480L481 420Z" />
<glyph unicode="&#xf9;" glyph-name="ugrave" horiz-adv-x="552" d="M444 0H314V64H310Q278 34 237 11T150 -12Q88 -12 60 20T32 118Q32 152 40 190L102 500H262L204 210Q201 196 199 186T196 166Q196 145 207 135T238 124Q258 124 277 137T320 180L382 500H542L444
0ZM208 726H354L410 574H300L208 726Z" />
<glyph unicode="&#xfa;" glyph-name="uacute" horiz-adv-x="552" d="M444 0H314V64H310Q278 34 237 11T150 -12Q88 -12 60 20T32 118Q32 152 40 190L102 500H262L204 210Q201 196 199 186T196 166Q196 145 207 135T238 124Q258 124 277 137T320 180L382 500H542L444
0ZM358 726H516L362 574H242L358 726Z" />
<glyph unicode="&#xfb;" glyph-name="ucircumflex" horiz-adv-x="552" d="M444 0H314V64H310Q278 34 237 11T150 -12Q88 -12 60 20T32 118Q32 152 40 190L102 500H262L204 210Q201 196 199 186T196 166Q196 145 207 135T238 124Q258 124 277 137T320 180L382 500H542L444
0ZM298 726H424L486 574H384L352 650H348L286 574H176L298 726Z" />
<glyph unicode="&#xfc;" glyph-name="udieresis" horiz-adv-x="552" d="M444 0H314V64H310Q278 34 237 11T150 -12Q88 -12 60 20T32 118Q32 152 40 190L102 500H262L204 210Q201 196 199 186T196 166Q196 145 207 135T238 124Q258 124 277 137T320 180L382 500H542L444
0ZM234 566Q206 566 187 583T168 632Q168 648 174 663T192 689T218 707T252 714Q280 714 299 697T318 648Q318 613 294 590T234 566ZM434 566Q406 566 387 583T368 632Q368 648 374 663T392 689T418 707T452 714Q480 714 499 697T518 648Q518 613 494 590T434 566Z"
/>
<glyph unicode="&#xfd;" glyph-name="yacute" horiz-adv-x="518" d="M24 -52Q41 -62 62 -62Q85 -62 107 -47T143 -5L153 15L65 500H224L242 295Q245 263 246 222T248 144H252Q267 179 284 220T316 295L406 500H560L299 1Q271 -47 244 -83T187 -142T125 -176T52
-188Q37 -188 14 -182T-24 -166L24 -52V-52ZM334 726H492L338 574H218L334 726Z" />
<glyph unicode="&#xfe;" glyph-name="thorn" horiz-adv-x="560" d="M264 -12Q235 -12 210 2T170 42H168L156 -52L132 -176H-28L148 696H308L278 550L252 458H254Q286 484 320 498T390 512Q456 512 493 465T530 328Q530 257 508 195T449 87T364 15T264 -12ZM318
382Q298 382 275 371T234 326L200 156Q208 136 222 127T252 118Q274 118 294 132T329 171T354 231T364 308Q364 347 352 364T318 382Z" />
<glyph unicode="&#xff;" glyph-name="ydieresis" horiz-adv-x="518" d="M24 -52Q41 -62 62 -62Q85 -62 107 -47T143 -5L153 15L65 500H224L242 295Q245 263 246 222T248 144H252Q267 179 284 220T316 295L406 500H560L299 1Q271 -47 244 -83T187 -142T125 -176T52
-188Q37 -188 14 -182T-24 -166L24 -52V-52ZM210 566Q182 566 163 583T144 632Q144 648 150 663T168 689T194 707T228 714Q256 714 275 697T294 648Q294 613 270 590T210 566ZM410 566Q382 566 363 583T344 632Q344 648 350 663T368 689T394 707T428 714Q456 714
475 697T494 648Q494 613 470 590T410 566Z" />
<glyph unicode="&#x2013;" glyph-name="endash" horiz-adv-x="464" d="M54 304H430L410 202H34L54 304Z" />
<glyph unicode="&#x2014;" glyph-name="emdash" horiz-adv-x="772" d="M54 304H738L718 202H34L54 304Z" />
<glyph unicode="&#x2018;" glyph-name="quoteleft" horiz-adv-x="310" d="M304 604Q275 594 253 579T215 546T191 513T182 486H188Q223 486 245 468T268 416Q268 380 243 352T174 324Q136 324 114 352T92 432Q92 481 107 520T148 590T208 640T280 672L304 604Z" />
<glyph unicode="&#x2019;" glyph-name="quoteright" horiz-adv-x="310" d="M106 416Q135 426 157 441T195 474T219 507T228 534H222Q187 534 165 552T142 604Q142 640 167 668T236 696Q274 696 296 668T318 588Q318 539 303 500T262 430T202 379T130 348L106 416Z" />
<glyph unicode="&#x201a;" glyph-name="quotesinglbase" horiz-adv-x="310" d="M7 -93Q36 -83 58 -68T96 -35T120 -2T129 25H123Q88 25 66 43T43 95Q43 131 68 159T137 187Q175 187 197 159T219 79Q219 30 204 -9T163 -79T103 -130T31 -161L7 -93Z" />
<glyph unicode="&#x201c;" glyph-name="quotedblleft" horiz-adv-x="550" d="M304 604Q275 594 253 579T215 546T191 513T182 486H188Q223 486 245 468T268 416Q268 380 243 352T174 324Q136 324 114 352T92 432Q92 481 107 520T148 590T208 640T280 672L304 604ZM544
604Q515 594 493 579T455 546T431 513T422 486H428Q463 486 485 468T508 416Q508 380 483 352T414 324Q376 324 354 352T332 432Q332 481 347 520T388 590T448 640T520 672L544 604Z" />
<glyph unicode="&#x201d;" glyph-name="quotedblright" horiz-adv-x="550" d="M106 416Q135 426 157 441T195 474T219 507T228 534H222Q187 534 165 552T142 604Q142 640 167 668T236 696Q274 696 296 668T318 588Q318 539 303 500T262 430T202 379T130 348L106
416ZM346 416Q375 426 397 441T435 474T459 507T468 534H462Q427 534 405 552T382 604Q382 640 407 668T476 696Q514 696 536 668T558 588Q558 539 543 500T502 430T442 379T370 348L346 416Z" />
<glyph unicode="&#x201e;" glyph-name="quotedblbase" horiz-adv-x="450" d="M7 -93Q36 -83 58 -68T96 -35T120 -2T129 25H123Q88 25 66 43T43 95Q43 131 68 159T137 187Q175 187 197 159T219 79Q219 30 204 -9T163 -79T103 -130T31 -161L7 -93ZM246 -93Q275 -83
297 -68T335 -35T359 -2T368 25H362Q327 25 305 43T282 95Q282 131 307 159T376 187Q414 187 436 159T458 79Q458 30 443 -9T402 -79T342 -130T270 -161L246 -93Z" />
<glyph unicode="&#x2022;" glyph-name="bullet" horiz-adv-x="344" d="M160 120Q107 120 73 155T38 246Q38 274 48 302T78 353T124 390T184 404Q237 404 271 369T306 278Q306 249 296 221T266 171T220 134T160 120Z" />
<glyph unicode="&#x2039;" glyph-name="guilsinglleft" horiz-adv-x="280" d="M40 200L60 312L212 448L260 396L130 246L206 94L144 54L40 200Z" />
<glyph unicode="&#x203a;" glyph-name="guilsinglright" horiz-adv-x="280" d="M248 302L228 190L76 54L28 106L158 256L82 408L144 448L248 302Z" />
</font>
</defs>
</svg>
