<?xml version="1.0" standalone="no"?>
<!DOCTYPE svg PUBLIC "-//W3C//DTD SVG 1.1//EN" "http://www.w3.org/Graphics/SVG/1.1/DTD/svg11.dtd" >
<svg xmlns="http://www.w3.org/2000/svg">
<metadata>
This is a custom SVG webfont generated by Font Squirrel.
Copyright   : send bread and water to jasonkottkeorg
</metadata>
<defs>
<font id="webfont7ujWizUu" horiz-adv-x="1705" >
<font-face units-per-em="2048" ascent="1638" descent="-410" />
<missing-glyph horiz-adv-x="1218" />
<glyph unicode=" "  horiz-adv-x="1218" />
<glyph unicode="&#x09;" horiz-adv-x="1218" />
<glyph unicode="&#xa0;" horiz-adv-x="1218" />
<glyph unicode="!" horiz-adv-x="974" d="M244 0v244h487v-244h-487zM244 487v732h487v-732h-487z" />
<glyph unicode="&#x22;" horiz-adv-x="1462" d="M244 731v488h975v-488h-975z" />
<glyph unicode="#" horiz-adv-x="1949" d="M244 244v243h243v244h-243v244h243v244h975v-244h244v-244h-244v-244h244v-243h-244v-244h-975v244h-243z" />
<glyph unicode="$" d="M244 0v244h731v243h-488v244h-243v244h243v244h244v243h488v-243h243v-244h-731v-244h488v-244h243v-487h-487v-244h-488v244h-243z" />
<glyph unicode="%" horiz-adv-x="1949" d="M244 731v488h1218v-488h-243v-244h487v-487h-1219v487h244v244h-487z" />
<glyph unicode="&#x26;" d="M244 244v243h243v244h-243v244h243v244h244v243h488v-243h243v-244h-731v-244h488v-244h-488v-243h731v-244h-243v-244h-488v244h-244v244h-243z" />
<glyph unicode="'" horiz-adv-x="974" d="M244 731v488h487v-488h-487z" />
<glyph unicode="(" horiz-adv-x="1218" d="M244 244v731h243v244h488v-244h-244v-731h244v-244h-488v244h-243z" />
<glyph unicode=")" horiz-adv-x="1218" d="M244 0v244h243v731h-243v244h487v-244h244v-731h-244v-244h-487z" />
<glyph unicode="*" horiz-adv-x="1949" d="M244 244v243h243v244h-243v244h487v244h488v-244h487v-244h-244v-244h244v-243h-487v-244h-488v244h-487z" />
<glyph unicode="+" horiz-adv-x="1949" d="M244 487h487v-487h488v487h487v244h-487v488h-488v-488h-487v-244z" />
<glyph unicode="," horiz-adv-x="974" d="M0 0h244v244h487v-244h-244v-244h-487v244z" />
<glyph unicode="-" horiz-adv-x="1462" d="M244 487v244h975v-244h-975z" />
<glyph unicode="." horiz-adv-x="731" d="M0 0v244h487v-244h-487z" />
<glyph unicode="/" horiz-adv-x="1462" d="M244 0v487h243v244h244v488h488v-488h-244v-244h-244v-487h-487z" />
<glyph unicode="0" d="M244 244v731h243v244h732v-244h243v-731h-243v-244h-732v244h-243zM731 244h244v731h-244v-731z" />
<glyph unicode="1" horiz-adv-x="1462" d="M244 0v244h243v731h-243v244h731v-975h244v-244h-975z" />
<glyph unicode="2" d="M244 0v487h243v244h488v244h-731v244h975v-244h243v-244h-243v-244h-488v-243h731v-244h-1218z" />
<glyph unicode="3" d="M244 0v244h731v243h-488v244h488v244h-731v244h975v-244h243v-244h-243v-244h243v-243h-243v-244h-975z" />
<glyph unicode="4" d="M244 244h487v-244h488v244h243v243h-243v732h-975v-975z" />
<glyph unicode="5" d="M244 0v244h731v243h-731v732h1218v-244h-731v-244h488v-244h243v-243h-243v-244h-975z" />
<glyph unicode="6" d="M244 244v731h243v244h732v-244h-488v-244h488v-244h243v-243h-243v-244h-732v244h-243zM731 244h244v243h-244v-243z" />
<glyph unicode="7" d="M244 975v244h1218v-488h-243v-244h-244v-487h-488v487h244v244h244v244h-731z" />
<glyph unicode="8" d="M244 244v243h243v244h-243v244h243v244h732v-244h243v-244h-243v-244h243v-243h-243v-244h-732v244h-243zM731 244h244v243h-244v-243zM731 731h244v244h-244v-244z" />
<glyph unicode="9" d="M244 731v244h243v244h732v-244h243v-731h-243v-244h-732v244h488v243h-488v244h-243zM731 731h244v244h-244v-244z" />
<glyph unicode=":" horiz-adv-x="731" d="M0 244v243h487v-243h-487zM0 731v244h487v-244h-487z" />
<glyph unicode=";" horiz-adv-x="974" d="M0 0v244h244v243h487v-243h-244v-244h-487zM244 731v244h487v-244h-487z" />
<glyph unicode="&#x3c;" horiz-adv-x="1462" d="M244 487v244h243v244h244v244h488v-244h-244v-244h-244v-244h244v-243h244v-244h-488v244h-244v243h-243z" />
<glyph unicode="=" horiz-adv-x="1462" d="M244 244v243h975v-243h-975zM244 731v244h975v-244h-975z" />
<glyph unicode="&#x3e;" horiz-adv-x="1462" d="M244 0v244h243v243h244v244h-244v244h-243v244h487v-244h244v-244h244v-244h-244v-243h-244v-244h-487z" />
<glyph unicode="?" d="M244 975v244h975v-244h243v-244h-243v-244h-732v244h488v244h-731zM487 0v244h488v-244h-488z" />
<glyph unicode="@" horiz-adv-x="1949" d="M244 244h243v-244h975v244h-731v243h731v244h244v244h-244v244h-975v-244h-243v-731zM487 0z" />
<glyph unicode="A" d="M244 0v975h243v244h732v-244h243v-975h-487v487h-244v-487h-487zM731 731h244v244h-244v-244z" />
<glyph unicode="B" d="M244 0v1219h975v-244h243v-244h-243v-244h243v-243h-243v-244h-975zM731 244h244v243h-244v-243zM731 731h244v244h-244v-244z" />
<glyph unicode="C" d="M244 244v731h243v244h732v-244h243v-244h-487v244h-244v-731h244v243h487v-243h-243v-244h-732v244h-243z" />
<glyph unicode="D" d="M244 0v1219h975v-244h243v-731h-243v-244h-975zM731 244h244v731h-244v-731z" />
<glyph unicode="E" horiz-adv-x="1462" d="M244 0v1219h975v-244h-488v-244h488v-244h-488v-243h488v-244h-975z" />
<glyph unicode="F" horiz-adv-x="1462" d="M244 0v1219h975v-244h-488v-244h488v-244h-488v-487h-487z" />
<glyph unicode="G" d="M244 244v731h243v244h975v-244h-731v-731h244v487h487v-487h-243v-244h-732v244h-243z" />
<glyph unicode="H" d="M244 0v1219h487v-488h244v488h487v-1219h-487v487h-244v-487h-487z" />
<glyph unicode="I" horiz-adv-x="974" d="M244 0v1219h487v-1219h-487z" />
<glyph unicode="J" d="M244 244v243h487v-243h244v975h487v-975h-243v-244h-732v244h-243z" />
<glyph unicode="K" d="M244 0v1219h487v-244h244v244h487v-244h-243v-244h-244v-244h244v-243h243v-244h-487v244h-244v-244h-487z" />
<glyph unicode="L" horiz-adv-x="1462" d="M244 0v1219h487v-975h488v-244h-975z" />
<glyph unicode="M" horiz-adv-x="1949" d="M244 0v1219h487v-244h488v244h487v-1219h-487v487h-488v-487h-487z" />
<glyph unicode="N" horiz-adv-x="1949" d="M244 0v1219h487v-244h244v-244h244v488h487v-1219h-487v244h-244v243h-244v-487h-487z" />
<glyph unicode="O" d="M244 244v731h243v244h732v-244h243v-731h-243v-244h-732v244h-243zM731 244h244v731h-244v-731z" />
<glyph unicode="P" d="M244 0v1219h975v-244h243v-244h-243v-244h-488v-487h-487zM731 731h244v244h-244v-244z" />
<glyph unicode="Q" d="M244 244v731h243v244h732v-244h243v-731h-243v-244h243v-244h-487v244h-488v244h-243zM731 244h244v731h-244v-731z" />
<glyph unicode="R" d="M244 0v1219h975v-244h243v-244h-243v-487h243v-244h-487v244h-244v-244h-487zM731 731h244v244h-244v-244z" />
<glyph unicode="S" d="M244 0v244h731v243h-488v244h-243v244h243v244h975v-244h-731v-244h488v-244h243v-243h-243v-244h-975z" />
<glyph unicode="T" horiz-adv-x="1462" d="M244 975v244h975v-244h-244v-975h-488v975h-243z" />
<glyph unicode="U" d="M244 244v975h487v-975h244v975h487v-975h-243v-244h-732v244h-243z" />
<glyph unicode="V" horiz-adv-x="1949" d="M244 731v488h487v-488h488v488h487v-488h-244v-487h-243v-244h-488v244h-244v487h-243z" />
<glyph unicode="W" horiz-adv-x="1949" d="M244 244v975h487v-244h488v244h487v-975h-244v-244h-975v244h-243z" />
<glyph unicode="X" horiz-adv-x="1949" d="M244 0v244h243v243h244v244h-244v244h-243v244h487v-244h488v244h487v-244h-244v-244h-243v-244h243v-243h244v-244h-487v244h-488v-244h-487z" />
<glyph unicode="Y" horiz-adv-x="1949" d="M244 975v244h487v-244h488v244h487v-244h-244v-244h-243v-731h-488v731h-244v244h-243z" />
<glyph unicode="Z" horiz-adv-x="1462" d="M244 0v487h243v244h244v244h-487v244h975v-488h-244v-244h-244v-243h488v-244h-975z" />
<glyph unicode="[" horiz-adv-x="1218" d="M244 0v1219h731v-244h-244v-731h244v-244h-731z" />
<glyph unicode="\" horiz-adv-x="1462" d="M244 731v488h487v-488h244v-244h244v-487h-488v487h-244v244h-243z" />
<glyph unicode="]" horiz-adv-x="1218" d="M244 0v244h243v731h-243v244h731v-1219h-731z" />
<glyph unicode="^" horiz-adv-x="1462" d="M244 731v244h243v244h488v-244h244v-244h-975z" />
<glyph unicode="_" d="M244 0h1218v-244h-1218v244z" />
<glyph unicode="`" horiz-adv-x="1218" d="M244 975v244h487v-244h244v-244h-488v244h-243z" />
<glyph unicode="a" d="M244 0v975h243v244h732v-244h243v-975h-487v487h-244v-487h-487zM731 731h244v244h-244v-244z" />
<glyph unicode="b" d="M244 0v1219h975v-244h243v-244h-243v-244h243v-243h-243v-244h-975zM731 244h244v243h-244v-243zM731 731h244v244h-244v-244z" />
<glyph unicode="c" d="M244 244v731h243v244h732v-244h243v-244h-487v244h-244v-731h244v243h487v-243h-243v-244h-732v244h-243z" />
<glyph unicode="d" d="M244 0v1219h975v-244h243v-731h-243v-244h-975zM731 244h244v731h-244v-731z" />
<glyph unicode="e" horiz-adv-x="1462" d="M244 0v1219h975v-244h-488v-244h488v-244h-488v-243h488v-244h-975z" />
<glyph unicode="f" horiz-adv-x="1462" d="M244 0v1219h975v-244h-488v-244h488v-244h-488v-487h-487z" />
<glyph unicode="g" d="M244 244v731h243v244h975v-244h-731v-731h244v487h487v-487h-243v-244h-732v244h-243z" />
<glyph unicode="h" d="M244 0v1219h487v-488h244v488h487v-1219h-487v487h-244v-487h-487z" />
<glyph unicode="i" horiz-adv-x="974" d="M244 0v1219h487v-1219h-487z" />
<glyph unicode="j" d="M244 244v243h487v-243h244v975h487v-975h-243v-244h-732v244h-243z" />
<glyph unicode="k" d="M244 0v1219h487v-244h244v244h487v-244h-243v-244h-244v-244h244v-243h243v-244h-487v244h-244v-244h-487z" />
<glyph unicode="l" horiz-adv-x="1462" d="M244 0v1219h487v-975h488v-244h-975z" />
<glyph unicode="m" horiz-adv-x="1949" d="M244 0v1219h487v-244h488v244h487v-1219h-487v487h-488v-487h-487z" />
<glyph unicode="n" horiz-adv-x="1949" d="M244 0v1219h487v-244h244v-244h244v488h487v-1219h-487v244h-244v243h-244v-487h-487z" />
<glyph unicode="o" d="M244 244v731h243v244h732v-244h243v-731h-243v-244h-732v244h-243zM731 244h244v731h-244v-731z" />
<glyph unicode="p" d="M244 0v1219h975v-244h243v-244h-243v-244h-488v-487h-487zM731 731h244v244h-244v-244z" />
<glyph unicode="q" d="M244 244v731h243v244h732v-244h243v-731h-243v-244h243v-244h-487v244h-488v244h-243zM731 244h244v731h-244v-731z" />
<glyph unicode="r" d="M244 0v1219h975v-244h243v-244h-243v-487h243v-244h-487v244h-244v-244h-487zM731 731h244v244h-244v-244z" />
<glyph unicode="s" d="M244 0v244h731v243h-488v244h-243v244h243v244h975v-244h-731v-244h488v-244h243v-243h-243v-244h-975z" />
<glyph unicode="t" horiz-adv-x="1462" d="M244 975v244h975v-244h-244v-975h-488v975h-243z" />
<glyph unicode="u" d="M244 244v975h487v-975h244v975h487v-975h-243v-244h-732v244h-243z" />
<glyph unicode="v" horiz-adv-x="1949" d="M244 731v488h487v-488h488v488h487v-488h-244v-487h-243v-244h-488v244h-244v487h-243z" />
<glyph unicode="w" horiz-adv-x="1949" d="M244 244v975h487v-244h488v244h487v-975h-244v-244h-975v244h-243z" />
<glyph unicode="x" horiz-adv-x="1949" d="M244 0v244h243v243h244v244h-244v244h-243v244h487v-244h488v244h487v-244h-244v-244h-243v-244h243v-243h244v-244h-487v244h-488v-244h-487z" />
<glyph unicode="y" horiz-adv-x="1949" d="M244 975v244h487v-244h488v244h487v-244h-244v-244h-243v-731h-488v731h-244v244h-243z" />
<glyph unicode="z" horiz-adv-x="1462" d="M244 0v487h243v244h244v244h-487v244h975v-488h-244v-244h-244v-243h488v-244h-975z" />
<glyph unicode="{" horiz-adv-x="1462" d="M244 487v244h243v488h732v-244h-244v-244h-244v-244h244v-243h244v-244h-732v487h-243z" />
<glyph unicode="|" horiz-adv-x="974" d="M244 -244v1706h487v-1706h-487z" />
<glyph unicode="}" horiz-adv-x="1462" d="M244 0v244h243v243h244v244h-244v244h-243v244h731v-488h244v-244h-244v-487h-731z" />
<glyph unicode="~" d="M244 731v244h243v244h975v-244h-243v-244h-975z" />
<glyph unicode="&#xad;" horiz-adv-x="1462" d="M244 487v244h975v-244h-975z" />
<glyph unicode="&#x2000;" horiz-adv-x="778" />
<glyph unicode="&#x2001;" horiz-adv-x="1558" />
<glyph unicode="&#x2002;" horiz-adv-x="778" />
<glyph unicode="&#x2003;" horiz-adv-x="1558" />
<glyph unicode="&#x2004;" horiz-adv-x="518" />
<glyph unicode="&#x2005;" horiz-adv-x="389" />
<glyph unicode="&#x2006;" horiz-adv-x="258" />
<glyph unicode="&#x2007;" horiz-adv-x="258" />
<glyph unicode="&#x2008;" horiz-adv-x="194" />
<glyph unicode="&#x2009;" horiz-adv-x="311" />
<glyph unicode="&#x200a;" horiz-adv-x="83" />
<glyph unicode="&#x2010;" horiz-adv-x="1462" d="M244 487v244h975v-244h-975z" />
<glyph unicode="&#x2011;" horiz-adv-x="1462" d="M244 487v244h975v-244h-975z" />
<glyph unicode="&#x2012;" horiz-adv-x="1462" d="M244 487v244h975v-244h-975z" />
<glyph unicode="&#x2013;" horiz-adv-x="1024" d="M244 487v244h536v-244h-536z" />
<glyph unicode="&#x2014;" horiz-adv-x="2048" d="M244 487v244h1560v-244h-1560z" />
<glyph unicode="&#x2018;" horiz-adv-x="1218" d="M244 975v244h487v-244h244v-244h-488v244h-243z" />
<glyph unicode="&#x2019;" horiz-adv-x="974" d="M244 731v488h487v-488h-487z" />
<glyph unicode="&#x201c;" horiz-adv-x="1462" d="M244 731v488h975v-488h-975z" />
<glyph unicode="&#x201d;" horiz-adv-x="1462" d="M244 731v488h975v-488h-975z" />
<glyph unicode="&#x2026;" horiz-adv-x="2193" d="M1462 0v244h487v-244h-487zM731 0v244h487v-244h-487zM0 0v244h487v-244h-487z" />
<glyph unicode="&#x202f;" horiz-adv-x="311" />
<glyph unicode="&#x205f;" horiz-adv-x="389" />
<glyph unicode="&#x2122;" horiz-adv-x="3411" d="M1706 0v1219h487v-244h488v244h487v-1219h-487v487h-488v-487h-487zM244 975v244h975v-244h-244v-975h-488v975h-243z" />
<glyph unicode="&#xe000;" horiz-adv-x="1220" d="M0 1220h1220v-1220h-1220v1220z" />
<glyph unicode="&#xfb01;" horiz-adv-x="2437" d="M1706 0v1219h487v-1219h-487zM244 0v1219h975v-244h-488v-244h488v-244h-488v-487h-487z" />
<glyph unicode="&#xfb02;" horiz-adv-x="2924" d="M1706 0v1219h487v-975h488v-244h-975zM244 0v1219h975v-244h-488v-244h488v-244h-488v-487h-487z" />
<glyph unicode="&#xfb03;" horiz-adv-x="3899" d="M3171 0v1219h487v-1219h-487zM1706 0v1219h975v-244h-488v-244h488v-244h-488v-487h-487zM244 0v1219h975v-244h-488v-244h488v-244h-488v-487h-487z" />
<glyph unicode="&#xfb04;" horiz-adv-x="4386" d="M3171 0v1219h487v-975h488v-244h-975zM1706 0v1219h975v-244h-488v-244h488v-244h-488v-487h-487zM244 0v1219h975v-244h-488v-244h488v-244h-488v-487h-487z" />
</font>
</defs>
</svg>
