<?xml version="1.0" encoding="UTF-8" standalone="no"?><!DOCTYPE svg PUBLIC "-//W3C//DTD SVG 1.1//EN" "http://www.w3.org/Graphics/SVG/1.1/DTD/svg11.dtd"><svg width="100%" height="100%" viewBox="0 0 16721 4063" version="1.1" xmlns="http://www.w3.org/2000/svg" xmlns:xlink="http://www.w3.org/1999/xlink" xml:space="preserve" xmlns:serif="http://www.serif.com/" style="fill-rule:evenodd;clip-rule:evenodd;stroke-linejoin:round;stroke-miterlimit:2;"><g><path d="M843.263,1759.5c255.02,-2.204 382.258,144.462 442.708,388.142l6.512,27.433l19.984,94.112l4.879,21.738l4.337,17.533l3.909,13.838l3.591,10.641c0.592,1.529 1.163,2.954 1.738,4.271l10.712,23.942c38.246,81.946 67.013,100.696 146.788,107.275c64.254,5.225 128.904,-5.642 217.133,-34.759l57.45,-20.137l69.359,-26.058c196.562,-74.184 308.733,-103.3 460.691,-101.771c239.584,2.533 404.759,87.062 561.859,247.012l20.416,21.304l77.467,85.017l24.337,26.317l10.646,11.058c11.075,11.009 20.675,19.638 29.442,26.479c152.225,119.425 349.725,171.492 582.225,113.75c41.717,-10.366 81.75,-19.133 120.121,-26.408c-61.563,125.346 -136.267,243.037 -222.38,351.392c-257.483,21.266 -486.041,-56.217 -667.812,-198.821c-18.887,-14.758 -37.258,-31.267 -56.354,-50.246l-17.621,-18.279l-105.35,-115.071c-109.963,-115.937 -205.346,-167.187 -360.138,-168.817c-56.491,-0.575 -106.891,5.588 -167.533,21.3l-31.25,8.663l-33.404,10.35l-36.042,12.083c-6.25,2.171 -12.621,4.409 -19.133,6.734l-40.813,14.862l-107.154,40.104l-28.3,9.984c-135.52,47.05 -243.783,67.325 -362.741,57.637c-207.867,-17.15 -326.338,-114.671 -412.413,-314.217c-13.058,-30.279 -21.996,-60.208 -31.875,-103.525l-21.058,-99.012l-5.367,-23.575l-2.604,-10.779c-30.433,-122.692 -60.658,-157.538 -144.496,-156.809c-66.875,0.505 -92.95,13.492 -132.933,75.817l-12.467,20.208l-78.108,137.363l-17.15,28.992l-3.421,5.591c-46.338,74.671 -95.938,139.913 -157.017,202.413c-35.954,36.787 -75.171,71.737 -118.229,105.016c-49.458,38.213 -96.646,69.913 -142.308,95.521c-42.429,-93.854 -77.604,-191.683 -104.754,-292.742c19.287,-12.779 39.408,-27.395 60.729,-43.891c31.854,-24.6 60.537,-50.154 86.646,-76.892c44.375,-45.379 80.729,-93.212 116.025,-150.087l16.129,-27.15l57.204,-100.696l14.271,-25.467c101.391,-174.117 213.021,-257.187 412.916,-258.683Z" style="fill:#fefefe;fill-rule:nonzero;"/><path d="M807.246,1775.48c245.208,-2.137 367.392,139.596 425.229,374.275l8.271,35.588l17.237,82.162l7.367,31.946l4.192,15.479l3.804,11.584c0.608,1.637 1.208,3.146 1.8,4.525c41.612,97.1 65.566,116.946 146.692,123.683c59.683,4.888 119.874,-5.108 201.716,-32.05l42.408,-14.679l81.267,-30.55c187.625,-71.275 294.846,-99.279 440.271,-97.804c228.213,2.421 385.95,83.075 535.45,235.396l22.654,23.745l94.129,103.663l12.092,12.7c10.458,10.462 19.504,18.637 27.721,25.104c138.633,109.458 316.787,159.429 526.125,113.896l24.292,-5.679c40.704,-10.175 79.745,-18.746 117.129,-25.834c-59.538,122.517 -132.004,237.384 -215.704,342.942c-245.205,19.783 -462.917,-54.779 -636.088,-191.512c-18.108,-14.242 -35.696,-30.146 -53.967,-48.417l-12.875,-13.363l-56.17,-61.308l-45.038,-49.862l-3.042,-3.292c-104.033,-110.396 -193.837,-158.963 -339.795,-160.513c-81.555,-0.825 -149.742,13.296 -259.9,52.1l-46.434,16.859l-117.596,44.083l-15.854,5.579c-129.575,45.279 -233.229,64.809 -347.254,55.475c-199.6,-16.579 -313.487,-110.925 -395.846,-303.096c-12.15,-28.354 -20.554,-56.329 -29.679,-96.083l-23.425,-110.046l-4.987,-21.183c-28.671,-116.342 -56.405,-148.513 -133.771,-147.838c-67.434,0.509 -89.688,14.4 -133.35,87.5l-63.659,112.884l-22.975,39.725l-8.958,14.9c-44.217,71.716 -91.55,134.4 -149.875,194.458c-34.333,35.354 -71.796,68.954 -112.917,100.938c-47.554,36.987 -92.925,67.629 -136.845,92.341c-41.48,-91.821 -75.684,-187.591 -101.917,-286.604c17.742,-11.796 36.317,-25.404 56,-40.717c30.183,-23.475 57.362,-47.85 82.125,-73.35c35.054,-36.095 64.837,-73.816 93.175,-116.825l20.825,-33.016l35,-60.896l44.404,-79.379c97.058,-167.775 204.438,-248.179 396.546,-249.634Z" style="fill:#fefefe;fill-rule:nonzero;"/></g><path d="M17.367,946.179l1857.32,-928.817l1857.96,928.817l-0,2012.44l-1856.12,928.821l-1859.16,-928.821l-0,-2012.44Z" style="fill:#e85314;"/><path d="M3113.43,1195.95l77.404,35.063l0,1287.97l-1314.88,671.846l-1316.78,-671.846l0,-1287.97l77.4,-35.063l0,7.2l1239.38,594.446l1237.47,-594.446l0,-7.2Z" style="fill:#fff;"/><g id="Logo-192-x-52-NEW"><g id="Logo-1"><path id="MAAS" d="M5084.98,3896.19c48.971,-0 76.518,-27.546 76.518,-76.518l-0,-1398.74l664.17,1062.06c21.424,33.667 52.031,52.031 91.82,52.031l171.399,0c39.789,0 70.396,-18.364 91.821,-52.031l664.169,-1065.12l0,1401.8c0,48.972 27.547,76.518 76.518,76.518l269.34,-0c48.971,-0 76.518,-27.546 76.518,-76.518l-0,-2007.81c-0,-48.971 -27.547,-76.518 -76.518,-76.518l-327.493,0c-39.789,0 -70.396,18.365 -91.821,52.032l-765.173,1251.82l-768.233,-1251.82c-21.425,-33.667 -52.032,-52.032 -91.821,-52.032l-330.554,0c-48.971,0 -76.518,27.547 -76.518,76.518l0,2007.81c0,48.972 27.547,76.518 76.518,76.518l269.34,-0Zm3464.7,-0c42.85,-0 73.457,-21.425 91.821,-58.153l146.913,-315.251l1236.52,-0l143.852,315.251c18.364,39.789 48.971,58.153 91.821,58.153l309.13,-0c58.153,-0 82.638,-36.729 58.153,-88.76l-970.239,-2017c-18.364,-36.728 -45.91,-55.093 -88.76,-55.093l-324.433,0c-42.85,0 -70.396,18.365 -88.76,55.093l-973.3,2017c-24.485,52.031 0,88.76 58.153,88.76l309.13,-0Zm1316.1,-722.323l-918.207,-0l462.164,-994.725l456.043,994.725Zm4706.98,722.323c42.85,-0 73.457,-21.425 91.821,-58.153l146.913,-315.251l1236.52,-0l143.852,315.251c18.364,39.789 48.971,58.153 91.821,58.153l309.13,-0c58.153,-0 82.638,-36.729 58.153,-88.76l-970.239,-2017c-18.364,-36.728 -45.91,-55.093 -88.76,-55.093l-324.433,0c-42.85,0 -70.396,18.365 -88.76,55.093l-973.3,2017c-24.485,52.031 0,88.76 58.153,88.76l309.13,-0Zm1316.1,-722.323l-918.207,-0l462.164,-994.725l456.043,994.725Zm-3173.47,722.323c535.62,-0 734.565,-226.491 734.565,-639.685c0,-400.95 -195.884,-563.167 -661.109,-599.895l-682.534,-52.032c-205.066,-15.303 -284.644,-58.153 -284.644,-226.491c0,-180.58 82.639,-235.673 318.312,-235.673l553.985,0c195.884,0 278.523,67.335 296.887,244.855c3.06,48.971 27.546,76.518 76.517,76.518l275.462,-0c48.971,-0 76.517,-27.547 73.457,-79.578c-21.425,-431.558 -238.734,-648.867 -722.323,-648.867l-560.107,0c-532.56,0 -731.505,226.491 -731.505,639.685c0,404.011 186.703,557.045 658.049,593.774l682.534,52.031c205.066,15.304 284.644,61.214 284.644,232.613c0,177.52 -82.639,235.673 -315.251,235.673l-599.895,-0c-198.945,-0 -281.584,-67.335 -299.948,-244.855c-3.061,-48.971 -27.546,-76.518 -76.517,-76.518l-272.402,0c-48.971,0 -76.517,27.547 -73.456,79.578c21.425,431.558 235.673,648.867 722.323,648.867l602.956,-0Z" style="fill:#fff;fill-rule:nonzero;stroke:#000;stroke-width:70.83px;"/></g></g></svg>