<?xml version="1.0" encoding="UTF-8" standalone="no"?><!DOCTYPE svg PUBLIC "-//W3C//DTD SVG 1.1//EN" "http://www.w3.org/Graphics/SVG/1.1/DTD/svg11.dtd"><svg width="100%" height="100%" viewBox="0 0 921 975" version="1.1" xmlns="http://www.w3.org/2000/svg" xmlns:xlink="http://www.w3.org/1999/xlink" xml:space="preserve" xmlns:serif="http://www.serif.com/" style="fill-rule:evenodd;clip-rule:evenodd;stroke-linejoin:round;stroke-miterlimit:2;"><g id="Icon-50-x-52-02"><g id="icon-2-NEW"><path id="Stroke-3" d="M195.607,443.716c60.723,-0.529 90.981,34.571 105.304,92.687l2.048,8.813l4.269,20.347l1.824,7.911l1.038,3.833l0.942,2.868c0.151,0.406 0.299,0.779 0.446,1.121c10.305,24.046 16.237,28.96 36.327,30.629c14.78,1.21 29.686,-1.265 49.953,-7.937l10.502,-3.635l20.125,-7.566c46.464,-17.65 73.016,-24.585 109.029,-24.22c56.515,0.599 95.578,20.573 132.599,58.294l5.611,5.88l23.31,25.671l2.995,3.146c2.59,2.59 4.829,4.615 6.865,6.216c34.331,27.107 78.449,39.481 130.29,28.206l6.016,-1.407c10.079,-2.519 19.748,-4.642 29.005,-6.397c-14.744,30.34 -32.69,58.786 -53.417,84.926c-60.722,4.899 -114.637,-13.566 -157.522,-47.426c-4.484,-3.527 -8.839,-7.465 -13.364,-11.99l-3.188,-3.31l-13.911,-15.181l-11.153,-12.349l-0.753,-0.815c-25.763,-27.338 -48.002,-39.366 -84.147,-39.749c-20.197,-0.205 -37.082,3.292 -64.362,12.901l-11.499,4.176l-29.121,10.916l-3.926,1.382c-32.089,11.213 -57.758,16.049 -85.995,13.738c-49.429,-4.106 -77.632,-27.47 -98.028,-75.059c-3.009,-7.022 -5.09,-13.95 -7.35,-23.795l-5.801,-27.251l-1.234,-5.246c-7.101,-28.811 -13.969,-36.778 -33.127,-36.611c-16.7,0.126 -22.211,3.566 -33.024,21.669l-15.764,27.954l-5.69,9.838l-2.219,3.69c-10.949,17.759 -22.671,33.283 -37.114,48.156c-8.503,8.755 -17.781,17.076 -27.963,24.996c-11.777,9.159 -23.013,16.747 -33.889,22.868c-10.272,-22.739 -18.743,-46.456 -25.239,-70.975c4.393,-2.922 8.994,-6.292 13.868,-10.083c7.475,-5.814 14.206,-11.851 20.338,-18.165c8.68,-8.938 16.056,-18.28 23.074,-28.931l5.157,-8.176l8.668,-15.08l10.996,-19.658c24.035,-41.548 50.627,-61.46 98.201,-61.82Z" style="fill:#fefefe;fill-rule:nonzero;"/><path id="Rectangle" d="M0,238.347l459.949,-230.014l460.107,230.014l-0,498.364l-459.651,230.014l-460.405,-230.014l0,-498.364Z" style="fill:#e85314;"/><path id="Combined-Shape" d="M766.713,300.202l19.168,8.683l-0,318.952l-325.617,166.377l-326.089,-166.377l-0,-318.952l19.168,-8.683l-0,1.782l306.921,147.209l306.449,-147.209l0,-1.782Z" style="fill:#fff;"/></g></g></svg>