<?xml version="1.0" encoding="utf-8"?>
<!-- Generator: Adobe Illustrator 15.1.0, SVG Export Plug-In . SVG Version: 6.00 Build 0)  -->
<!DOCTYPE svg PUBLIC "-//W3C//DTD SVG 1.1//EN" "http://www.w3.org/Graphics/SVG/1.1/DTD/svg11.dtd">
<svg version="1.1" id="Layer_1" xmlns="http://www.w3.org/2000/svg" xmlns:xlink="http://www.w3.org/1999/xlink" x="0px" y="0px"
	 width="231px" height="56px" viewBox="0 0 231 56" enable-background="new 0 0 231 56" xml:space="preserve">
<path fill="#FFFFFF" stroke="#000000" stroke-miterlimit="10" d="M107.512,14.936c-5.168,0-8.968,2.052-11.324,5.472
	c-2.128-3.496-5.624-5.472-10.336-5.472c-4.864,0-8.436,1.9-10.564,5.092V16h-9.804v38h9.804V32.645
	c0-5.701,2.964-8.588,7.144-8.588c4.104,0,6.384,2.736,6.384,7.219V54h9.804V32.645c0-5.701,2.736-8.588,7.068-8.588
	c4.104,0,6.384,2.736,6.384,7.219V54h9.804V30.592C121.876,21.092,116.176,14.936,107.512,14.936z M152.116,16v20.52
	c0,6.612-3.572,9.424-8.36,9.424c-4.408,0-7.523-2.659-7.523-7.827V16h-9.805v23.332c0,10.107,6.309,15.732,14.364,15.732
	c5.092,0,9.044-1.9,11.324-5.32V54h9.804V16H152.116z M177.492,22.536V16h-9.805v38h9.805V35.836c0-7.98,6.46-10.26,11.552-9.652
	V15.24C184.256,15.24,179.468,17.368,177.492,22.536z M220.424,16h9.805v38h-9.805v-4.484c-2.736,3.42-6.84,5.549-12.388,5.549
	c-10.108,0-18.468-8.74-18.468-20.064s8.359-20.064,18.468-20.064c5.548,0,9.651,2.128,12.388,5.548V16z M209.859,45.716
	c6.08,0,10.564-4.332,10.564-10.716s-4.484-10.716-10.564-10.716c-6.004,0-10.487,4.332-10.487,10.716
	S203.855,45.716,209.859,45.716z"/>
<path fill="#E44A35" d="M53,42.135C53,48.688,47.651,54,41.073,54H0V37.751c0.041-0.032,0.083-0.063,0.125-0.096
	c2.802-2.132,6.261-3.408,10.476-3.408c4.412,0,7.505,0.945,13.769,3.722c0.503,0.224,0.75,0.334,1.01,0.447
	c6.04,2.667,9.61,3.732,14.372,3.732c4.544,0,8.996-1.045,13.25-2.848V42.135z M53,0v33.499c-4.278,2.125-8.768,3.382-13.25,3.382
	c-3.829,0-6.808-0.889-12.22-3.278c-0.255-0.112-0.499-0.22-1.002-0.444C19.627,30.1,15.963,28.98,10.6,28.98
	c-4.005,0-7.541,0.914-10.6,2.519l0.012-31.49L53,0z"/>
</svg>
