<?xml version="1.0" encoding="utf-8"?>
<!-- Generator: Adobe Illustrator 15.1.0, SVG Export Plug-In . SVG Version: 6.00 Build 0)  -->
<!DOCTYPE svg PUBLIC "-//W3C//DTD SVG 1.1//EN" "http://www.w3.org/Graphics/SVG/1.1/DTD/svg11.dtd">
<svg version="1.1" id="Layer_1" xmlns="http://www.w3.org/2000/svg" xmlns:xlink="http://www.w3.org/1999/xlink" x="0px" y="0px"
	 width="53px" height="56px" viewBox="0 0 53 56" enable-background="new 0 0 53 56" xml:space="preserve">
<path fill="#E44A35" d="M53,42.135C53,48.688,47.651,54,41.073,54H0V37.751c0.041-0.032,0.083-0.063,0.125-0.096
	c2.802-2.132,6.261-3.408,10.476-3.408c4.412,0,7.505,0.945,13.769,3.722c0.503,0.224,0.75,0.334,1.01,0.447
	c6.04,2.667,9.61,3.732,14.372,3.732c4.544,0,8.996-1.045,13.25-2.848V42.135z M53,0v33.499c-4.278,2.125-8.768,3.382-13.25,3.382
	c-3.829,0-6.808-0.889-12.22-3.278c-0.255-0.112-0.499-0.22-1.002-0.444C19.627,30.1,15.963,28.98,10.6,28.98
	c-4.005,0-7.541,0.914-10.6,2.519l0.012-31.49L53,0z"/>
</svg>
